<svg width="28" height="28" viewBox="0 0 28 28" fill="none" xmlns="http://www.w3.org/2000/svg">
<path fill-rule="evenodd" clip-rule="evenodd" d="M26 14C26 20.6274 20.6274 26 14 26C7.37258 26 2 20.6274 2 14C2 7.37258 7.37258 2 14 2C20.6274 2 26 7.37258 26 14ZM16.643 7.66842C17.0216 7.67634 19.0037 7.7398 21.131 9.2662C21.131 9.2662 23.5079 13.2527 23.5076 18.1488C23.493 18.1315 23.4347 18.1904 23.3274 18.2987C22.8461 18.7848 21.3783 20.2672 18.4395 20.3319C18.4395 20.3319 17.8352 19.6595 17.4001 19.0663C19.4953 18.4731 20.2849 17.2867 20.2849 17.2867C18.1069 18.6334 16.0726 19.1514 14 19.0842C11.9274 19.1516 9.89316 18.6334 7.7152 17.2867C7.7152 17.2867 8.5048 18.4731 10.5998 19.0663C10.1647 19.6595 9.56037 20.3319 9.56037 20.3319C6.62149 20.2672 5.15374 18.7848 4.6724 18.2987C4.56515 18.1904 4.50687 18.1315 4.4922 18.1488C4.4922 13.2527 6.86916 9.2662 6.86916 9.2662C8.99632 7.73961 10.9785 7.67634 11.3572 7.66842L11.5989 7.89781C8.88352 8.65713 7.57015 9.84359 7.57015 9.84359C9.90084 8.71794 12.0973 8.32228 14 8.29828C15.9029 8.32209 18.0992 8.71794 20.43 9.84359C20.43 9.84359 19.1166 8.65713 16.4012 7.89781L16.643 7.66842ZM9.41512 14.9216C9.41512 15.855 10.1564 16.6143 11.075 16.6143H11.0752C11.9936 16.6143 12.735 15.855 12.7348 14.9295C12.7348 13.9962 11.9855 13.2369 11.075 13.2369V13.2289C10.1564 13.2289 9.41512 13.9882 9.41512 14.9216ZM15.2649 14.9295C15.2649 15.855 16.0061 16.6143 16.9247 16.6143H16.9249C17.8435 16.6143 18.5846 15.8549 18.5846 14.9216C18.5846 13.9883 17.8433 13.2289 16.9247 13.2289V13.2369C16.0142 13.2369 15.2649 13.9962 15.2649 14.9295Z" fill="#F5E6D5"/>
</svg>
