<svg width="24" height="24" viewBox="0 0 24 24" fill="none" xmlns="http://www.w3.org/2000/svg">
<path fill-rule="evenodd" clip-rule="evenodd" d="M12.2832 0.800293C5.9387 0.800293 0.799927 5.93906 0.799927 12.2836C0.799927 17.3649 4.08702 21.6568 8.65163 23.1784C9.22579 23.2788 9.4411 22.9343 9.4411 22.6329C9.4411 22.3602 9.42675 21.4559 9.42675 20.4941C6.54157 21.0252 5.79516 19.7908 5.56549 19.1448C5.43631 18.8147 4.87649 17.7956 4.38845 17.5228C3.98654 17.3075 3.41238 16.7764 4.3741 16.7621C5.27841 16.7477 5.92435 17.5946 6.13966 17.9391C7.17315 19.6759 8.82388 19.1879 9.48416 18.8865C9.58464 18.1401 9.88608 17.6377 10.2162 17.3506C7.66119 17.0635 4.99133 16.0731 4.99133 11.6807C4.99133 10.4319 5.43631 9.39841 6.16837 8.59458C6.05353 8.30749 5.65162 7.13046 6.2832 5.5515C6.2832 5.5515 7.24492 5.25007 9.4411 6.72854C10.3598 6.47017 11.3358 6.34098 12.3119 6.34098C13.288 6.34098 14.2641 6.47017 15.1827 6.72854C17.3789 5.23571 18.3407 5.5515 18.3407 5.5515C18.9722 7.13046 18.5703 8.30749 18.4555 8.59458C19.1875 9.39841 19.6325 10.4175 19.6325 11.6807C19.6325 16.0874 16.9483 17.0635 14.3933 17.3506C14.8095 17.7094 15.1684 18.3984 15.1684 19.475C15.1684 21.0109 15.154 22.2453 15.154 22.6329C15.154 22.9343 15.3694 23.2932 15.9435 23.1784C18.2231 22.4087 20.204 20.9436 21.6073 18.9892C23.0107 17.0348 23.7658 14.6896 23.7665 12.2836C23.7665 5.93906 18.6277 0.800293 12.2832 0.800293Z" fill="white"/>
</svg>
