<svg width="22" height="22" viewBox="0 0 22 22" fill="none" xmlns="http://www.w3.org/2000/svg">
<path d="M11.0001 7.35501C8.9931 7.35501 7.35521 8.9929 7.35521 10.9999C7.35521 13.007 8.9931 14.6449 11.0001 14.6449C13.0072 14.6449 14.6451 13.007 14.6451 10.9999C14.6451 8.9929 13.0072 7.35501 11.0001 7.35501ZM21.9322 10.9999C21.9322 9.49056 21.9458 7.99485 21.8611 6.48821C21.7763 4.73821 21.3771 3.18509 20.0974 1.9054C18.815 0.622981 17.2646 0.226497 15.5146 0.141731C14.0052 0.0569656 12.5095 0.0706375 11.0029 0.0706375C9.49349 0.0706375 7.99779 0.0569656 6.49115 0.141731C4.74115 0.226497 3.18802 0.625715 1.90833 1.9054C0.625911 3.18782 0.229427 4.73821 0.144661 6.48821C0.0598953 7.99759 0.0735672 9.49329 0.0735672 10.9999C0.0735672 12.5066 0.0598953 14.005 0.144661 15.5116C0.229427 17.2616 0.628646 18.8148 1.90833 20.0945C3.19076 21.3769 4.74115 21.7734 6.49115 21.8581C8.00052 21.9429 9.49622 21.9292 11.0029 21.9292C12.5122 21.9292 14.0079 21.9429 15.5146 21.8581C17.2646 21.7734 18.8177 21.3741 20.0974 20.0945C21.3798 18.812 21.7763 17.2616 21.8611 15.5116C21.9486 14.005 21.9322 12.5093 21.9322 10.9999ZM11.0001 16.6081C7.89662 16.6081 5.39193 14.1034 5.39193 10.9999C5.39193 7.89642 7.89662 5.39173 11.0001 5.39173C14.1036 5.39173 16.6083 7.89642 16.6083 10.9999C16.6083 14.1034 14.1036 16.6081 11.0001 16.6081ZM16.838 6.47181C16.1134 6.47181 15.5283 5.88665 15.5283 5.16204C15.5283 4.43743 16.1134 3.85228 16.838 3.85228C17.5626 3.85228 18.1478 4.43743 18.1478 5.16204C18.148 5.3341 18.1143 5.50452 18.0485 5.66352C17.9828 5.82253 17.8863 5.967 17.7647 6.08867C17.643 6.21033 17.4985 6.3068 17.3395 6.37255C17.1805 6.43829 17.0101 6.47202 16.838 6.47181Z" fill="white"/>
</svg>
