<svg width="28" height="28" viewBox="0 0 28 28" fill="none" xmlns="http://www.w3.org/2000/svg">
<g opacity="0.3">
<path fill-rule="evenodd" clip-rule="evenodd" d="M26 14C26 20.627 20.627 26 14 26C7.373 26 2 20.627 2 14C2 7.373 7.373 2 14 2C20.627 2 26 7.373 26 14ZM21.688 13.058C21.882 13.335 21.992 13.662 22.004 14C22.0092 14.3307 21.9207 14.6561 21.7487 14.9385C21.5767 15.221 21.3282 15.4489 21.032 15.596C21.046 15.772 21.046 15.948 21.032 16.124C21.032 18.812 17.9 20.996 14.036 20.996C10.172 20.996 7.04 18.812 7.04 16.124C7.02649 15.9483 7.02649 15.7717 7.04 15.596C6.81117 15.4889 6.60825 15.3335 6.44519 15.1405C6.28213 14.9475 6.16279 14.7215 6.09537 14.478C6.02796 14.2345 6.01408 13.9793 6.05467 13.7299C6.09526 13.4805 6.18937 13.2429 6.33053 13.0333C6.47169 12.8238 6.65656 12.6473 6.87241 12.516C7.08826 12.3847 7.32999 12.3016 7.58098 12.2726C7.83197 12.2436 8.08626 12.2693 8.32638 12.3479C8.5665 12.4265 8.78676 12.5562 8.972 12.728C10.3547 11.7902 11.9815 11.2772 13.652 11.252L14.54 7.088C14.55 7.03979 14.5694 6.99405 14.5972 6.95341C14.625 6.91277 14.6605 6.87805 14.7018 6.85127C14.7431 6.82448 14.7894 6.80615 14.8378 6.79735C14.8862 6.78855 14.9359 6.78945 14.984 6.8L17.924 7.388C18.0676 7.14132 18.2944 6.9539 18.5637 6.85937C18.833 6.76484 19.1272 6.7694 19.3934 6.87222C19.6597 6.97505 19.8806 7.1694 20.0164 7.42041C20.1523 7.67141 20.1943 7.96262 20.1348 8.24177C20.0753 8.52092 19.9182 8.76972 19.6918 8.94352C19.4654 9.11732 19.1845 9.20473 18.8995 9.19006C18.6144 9.1754 18.3439 9.05962 18.1366 8.8635C17.9292 8.66739 17.7985 8.40378 17.768 8.12L15.2 7.58L14.42 11.324C16.0702 11.3594 17.6749 11.8721 19.04 12.8C19.2222 12.6248 19.4402 12.4911 19.679 12.4082C19.9178 12.3252 20.1718 12.295 20.4234 12.3195C20.675 12.344 20.9183 12.4227 21.1366 12.5502C21.3549 12.6777 21.543 12.8509 21.688 13.058ZM10.206 14.533C10.1184 14.6641 10.0575 14.8111 10.0267 14.9657C9.99595 15.1203 9.99593 15.2794 10.0267 15.4341C10.0887 15.7463 10.2723 16.0211 10.537 16.198C10.8017 16.3749 11.1258 16.4394 11.4381 16.3773C11.5927 16.3466 11.7397 16.2857 11.8708 16.1981C12.0019 16.1106 12.1144 15.9981 12.202 15.867C12.3789 15.6023 12.4434 15.2782 12.3813 14.9659C12.3193 14.6537 12.1357 14.3789 11.871 14.202C11.6063 14.0251 11.2822 13.9606 10.9699 14.0227C10.6577 14.0847 10.3829 14.2683 10.206 14.533ZM14.012 19.424C15.077 19.468 16.125 19.19 16.976 18.548C17.0397 18.4859 17.076 18.4011 17.0772 18.3122C17.0783 18.2234 17.0441 18.1377 16.982 18.074C16.9513 18.0425 16.9146 18.0173 16.8742 18C16.8337 17.9826 16.7903 17.9734 16.7462 17.9728C16.6574 17.9717 16.5717 18.0059 16.508 18.068C15.7797 18.5904 14.895 18.8487 14 18.8C13.1061 18.8399 12.2255 18.5732 11.504 18.044C11.4418 17.993 11.3629 17.9669 11.2826 17.9708C11.2022 17.9748 11.1262 18.0085 11.0693 18.0653C11.0125 18.1222 10.9788 18.1982 10.9748 18.2786C10.9709 18.3589 10.997 18.4378 11.048 18.5C11.8994 19.1416 12.9469 19.4681 14.012 19.424ZM16.093 16.246C16.291 16.378 16.511 16.496 16.748 16.496C16.9108 16.4979 17.0722 16.4666 17.2225 16.4041C17.3728 16.3416 17.5087 16.2492 17.6221 16.1324C17.7355 16.0156 17.824 15.877 17.8821 15.725C17.9401 15.5729 17.9667 15.4106 17.96 15.248C17.9599 15.0407 17.9062 14.837 17.8039 14.6567C17.7017 14.4763 17.5545 14.3256 17.3767 14.219C17.1989 14.1125 16.9965 14.0539 16.7893 14.0488C16.5821 14.0437 16.3771 14.0924 16.1943 14.1902C16.0115 14.2879 15.8571 14.4313 15.7462 14.6064C15.6353 14.7815 15.5717 14.9824 15.5615 15.1894C15.5513 15.3964 15.5949 15.6026 15.688 15.7877C15.7812 15.9729 15.9207 16.1308 16.093 16.246Z" fill="white"/>
</g>
</svg>
