<svg width="22" height="22" viewBox="0 0 22 22" fill="none" xmlns="http://www.w3.org/2000/svg">
<path fill-rule="evenodd" clip-rule="evenodd" d="M0.538338 0.53834C0.193646 0.883032 0 1.35053 0 1.838V20.161C-0.000131062 20.4025 0.0473133 20.6416 0.139623 20.8647C0.231932 21.0878 0.367297 21.2905 0.537984 21.4613C0.708672 21.6321 0.911335 21.7676 1.1344 21.86C1.35746 21.9524 1.59655 22 1.838 22H20.161C20.4026 22.0001 20.6419 21.9526 20.8651 21.8602C21.0884 21.7678 21.2912 21.6322 21.462 21.4613C21.6328 21.2904 21.7683 21.0875 21.8606 20.8642C21.9529 20.6409 22.0003 20.4016 22 20.16V1.838C22.0001 1.59643 21.9526 1.3572 21.8602 1.13401C21.7677 0.910826 21.6322 0.708065 21.4612 0.537339C21.2903 0.366612 21.0874 0.231273 20.8641 0.139069C20.6409 0.0468653 20.4016 -0.000392154 20.16 2.39762e-06H1.838C1.35053 2.39762e-06 0.88303 0.193648 0.538338 0.53834ZM15.0958 5.54305C15.6398 6.15406 16.3641 6.57767 17.1647 6.75309H17.1968C17.461 6.8074 17.7302 6.83422 18 6.83311V9.5539C16.6266 9.55841 15.2865 9.13293 14.1689 8.33754V13.9392C14.1664 14.9451 13.8638 15.9276 13.2995 16.7618C12.7353 17.596 11.9349 18.2442 11.0001 18.6242C10.0653 19.0041 9.03814 19.0986 8.04928 18.8956C7.06041 18.6926 6.15443 18.2014 5.44645 17.4842C4.75565 16.7793 4.28615 15.889 4.09545 14.9223C3.90475 13.9556 4.00112 12.9545 4.37275 12.0415C4.74439 11.1286 5.37517 10.3434 6.18784 9.78218C7.00052 9.22095 7.95982 8.90802 8.94827 8.8817C9.21662 8.87547 9.48506 8.88884 9.75144 8.92171V11.7225C9.52253 11.6522 9.28419 11.6171 9.04465 11.6185C8.61153 11.617 8.18662 11.7362 7.81798 11.9628C7.44934 12.1893 7.15167 12.5141 6.95864 12.9005C6.76561 13.2868 6.68492 13.7192 6.72568 14.1488C6.76645 14.5784 6.92705 14.9881 7.18933 15.3316C7.48208 15.7195 7.88993 16.0059 8.35511 16.1501C8.82029 16.2943 9.31922 16.289 9.78121 16.135C10.2432 15.981 10.6448 15.686 10.9292 15.2919C11.2136 14.8978 11.3664 14.4246 11.3658 13.9392V3H14.1368V3.3521C14.2161 4.16503 14.5518 4.93204 15.0958 5.54305Z" fill="#6B6B6D"/>
</svg>
