<svg width="28" height="28" viewBox="0 0 28 28" fill="none" xmlns="http://www.w3.org/2000/svg">
<path d="M27.2327 5.99098C26.2827 6.41193 25.2622 6.69635 24.1894 6.82491C25.2963 6.16254 26.1245 5.12005 26.5194 3.89195C25.4793 4.50971 24.3411 4.94453 23.1541 5.17754C22.3559 4.32526 21.2986 3.76035 20.1464 3.57053C18.9942 3.3807 17.8116 3.57658 16.7822 4.12774C15.7527 4.67891 14.934 5.55452 14.4532 6.61865C13.9724 7.68277 13.8564 8.87587 14.1231 10.0127C12.0158 9.90689 9.95423 9.35916 8.07226 8.40504C6.1903 7.45093 4.52998 6.11176 3.19907 4.47445C2.744 5.25945 2.48233 6.1696 2.48233 7.13891C2.48182 8.01151 2.69671 8.87074 3.10792 9.64037C3.51913 10.41 4.11395 11.0662 4.83961 11.5509C3.99804 11.5241 3.17504 11.2967 2.4391 10.8876V10.9558C2.43901 12.1797 2.86235 13.3659 3.63729 14.3132C4.41222 15.2604 5.49102 15.9104 6.69063 16.1528C5.90993 16.3641 5.09143 16.3952 4.29694 16.2438C4.6354 17.2969 5.29468 18.2177 6.1825 18.8775C7.07032 19.5372 8.14222 19.9028 9.24815 19.9231C7.37078 21.3969 5.05223 22.1963 2.6655 22.1928C2.24271 22.1929 1.82028 22.1682 1.40039 22.1188C3.82307 23.6765 6.64323 24.5032 9.52347 24.5C19.2734 24.5 24.6035 16.4247 24.6035 9.42111C24.6035 9.19357 24.5978 8.96376 24.5876 8.73622C25.6243 7.98645 26.5193 7.05801 27.2304 5.9944L27.2327 5.99098Z" fill="#F5E6D5"/>
</svg>
