<svg width="28" height="28" viewBox="0 0 28 28" fill="none" xmlns="http://www.w3.org/2000/svg">
<path d="M19.232 16.4C19.328 15.608 19.4 14.816 19.4 14C19.4 13.184 19.328 12.392 19.232 11.6H23.288C23.48 12.368 23.6 13.172 23.6 14C23.6 14.828 23.48 15.632 23.288 16.4H19.232ZM17.108 23.072C17.828 21.74 18.38 20.3 18.764 18.8H22.304C21.1414 20.8019 19.2969 22.3184 17.108 23.072ZM16.808 16.4H11.192C11.072 15.608 11 14.816 11 14C11 13.184 11.072 12.38 11.192 11.6H16.808C16.916 12.38 17 13.184 17 14C17 14.816 16.916 15.608 16.808 16.4ZM14 23.552C13.004 22.112 12.2 20.516 11.708 18.8H16.292C15.8 20.516 14.996 22.112 14 23.552ZM9.2 9.2H5.696C6.84663 7.19266 8.68975 5.67378 10.88 4.928C10.16 6.26 9.62 7.7 9.2 9.2ZM5.696 18.8H9.2C9.62 20.3 10.16 21.74 10.88 23.072C8.69435 22.318 6.85382 20.8013 5.696 18.8ZM4.712 16.4C4.52 15.632 4.4 14.828 4.4 14C4.4 13.172 4.52 12.368 4.712 11.6H8.768C8.672 12.392 8.6 13.184 8.6 14C8.6 14.816 8.672 15.608 8.768 16.4H4.712ZM14 4.436C14.996 5.876 15.8 7.484 16.292 9.2H11.708C12.2 7.484 13.004 5.876 14 4.436ZM22.304 9.2H18.764C18.3884 7.71375 17.8323 6.27908 17.108 4.928C19.316 5.684 21.152 7.208 22.304 9.2ZM14 2C7.364 2 2 7.4 2 14C2 17.1826 3.26428 20.2348 5.51472 22.4853C6.62902 23.5996 7.95189 24.4835 9.4078 25.0866C10.8637 25.6896 12.4241 26 14 26C17.1826 26 20.2348 24.7357 22.4853 22.4853C24.7357 20.2348 26 17.1826 26 14C26 12.4241 25.6896 10.8637 25.0866 9.4078C24.4835 7.95189 23.5996 6.62902 22.4853 5.51472C21.371 4.40042 20.0481 3.5165 18.5922 2.91345C17.1363 2.31039 15.5759 2 14 2Z" fill="#F5E6D5"/>
</svg>
