<svg width="28" height="28" viewBox="0 0 28 28" fill="none" xmlns="http://www.w3.org/2000/svg">
<path d="M16.0038 13.7913L13.1963 12.4813C12.9513 12.3675 12.75 12.495 12.75 12.7662V15.2338C12.75 15.505 12.9513 15.6325 13.1963 15.5188L16.0025 14.2088C16.2488 14.0938 16.2488 13.9063 16.0038 13.7913ZM14 2C7.3725 2 2 7.3725 2 14C2 20.6275 7.3725 26 14 26C20.6275 26 26 20.6275 26 14C26 7.3725 20.6275 2 14 2ZM14 18.875C7.8575 18.875 7.75 18.3213 7.75 14C7.75 9.67875 7.8575 9.125 14 9.125C20.1425 9.125 20.25 9.67875 20.25 14C20.25 18.3213 20.1425 18.875 14 18.875Z" fill="#F5E6D5"/>
</svg>
