<svg width="20" height="20" viewBox="0 0 20 20" fill="none" xmlns="http://www.w3.org/2000/svg">
<path d="M5.00726 10L2.76446 12.2458L0.5 10L2.76362 7.73417L5.00726 10ZM10.4902 4.51167L14.3531 8.37833L16.6176 6.11333L10.4902 0L4.36289 6.13333L6.62735 8.39833L10.4902 4.51167ZM18.2169 7.73417L15.9732 10L18.2368 12.2658L20.4996 10L18.2169 7.73417ZM10.4902 15.4883L6.62735 11.6017L4.36289 13.8675L10.4902 20L16.6176 13.8667L14.3531 11.6017L10.4902 15.4883ZM10.4902 12.2467L12.7539 9.98L10.4902 7.735L8.22662 10L10.4902 12.2458V12.2467Z" fill="#FFD751"/>
</svg>
