<svg width="25" height="26" viewBox="0 0 25 26" fill="none" xmlns="http://www.w3.org/2000/svg">
<path d="M0.396005 12.895C0.453979 6.26789 5.87335 0.942505 12.5005 1.00048V1.00048C19.1277 1.05845 24.4531 6.47783 24.3951 13.105V13.105C24.3371 19.7322 18.9177 25.0575 12.2906 24.9996V24.9996C5.66341 24.9416 0.338032 19.5222 0.396005 12.895V12.895Z" fill="#F3BA2F"/>
<path d="M8.91249 11.5335L12.4387 8.06845L15.9054 11.5962L17.9571 9.58003L12.4743 4.0006L6.89651 9.48162L8.91256 11.5333L8.91249 11.5335ZM3.39588 12.9215L5.44767 10.905L7.46373 12.9567L5.41194 14.9729L3.39588 12.9215ZM8.88736 14.4061L12.3524 17.9321L15.8802 14.4656L17.8974 16.5163L17.8964 16.5173L12.3168 21.9999L6.83579 16.4222L6.83294 16.4192L8.88758 14.4059L8.88736 14.4061ZM17.3273 13.0443L19.3791 11.0281L21.3952 13.0797L19.3435 15.0959L17.3273 13.0443Z" fill="white"/>
<path d="M14.4575 13.016L14.4584 13.016L12.4126 10.9341L10.8739 12.4457L10.6971 12.6195L10.3325 12.9778L10.3296 12.9806L10.3324 12.9835L12.3765 15.0639L14.4585 13.0181L14.4595 13.017L14.4576 13.016" fill="white"/>
</svg>
