<svg width="36" height="36" viewBox="0 0 36 36" fill="none" xmlns="http://www.w3.org/2000/svg">
<rect width="36" height="36" fill="#48484A"/>
<g opacity="0.4">
<path d="M18.8052 23.9625C18.8052 23.9675 18.8052 23.9726 18.8052 23.9751L17.8027 25.7125L16.8002 23.9751C16.8002 23.9701 16.8002 23.9675 16.8002 23.9625C16.8002 23.9575 16.8002 23.9526 16.8002 23.9501L17.8027 22.2125L18.8052 23.9501C18.8052 23.9551 18.8052 23.9575 18.8052 23.9625ZM20.3377 23.9625C20.3377 23.7025 20.2802 23.44 20.1677 23.2425L18.2202 19.8675C17.9927 19.4725 17.6177 19.4725 17.3902 19.8675L15.4427 23.2425C15.3277 23.44 15.2727 23.7 15.2727 23.9625C15.2727 24.225 15.3302 24.485 15.4427 24.6825L17.3902 28.0575C17.6177 28.4525 17.9927 28.4525 18.2202 28.0575L20.1677 24.6825C20.2802 24.485 20.3377 24.225 20.3377 23.9625Z" fill="#CFB675"/>
<path d="M18.8051 12.0348C18.8051 12.0398 18.8051 12.0448 18.8051 12.0473L17.8026 13.7848L16.8001 12.0473C16.8001 12.0423 16.8001 12.0398 16.8001 12.0348C16.8001 12.0298 16.8001 12.0248 16.8001 12.0223L17.8026 10.2848L18.8051 12.0223C18.8051 12.0248 18.8051 12.0298 18.8051 12.0348ZM20.3377 12.0348C20.3377 11.7748 20.2801 11.5123 20.1676 11.3148L18.2202 7.9398C17.9927 7.5448 17.6176 7.5448 17.3901 7.9398L15.4426 11.3148C15.3276 11.5123 15.2726 11.7723 15.2726 12.0348C15.2726 12.2948 15.3301 12.5573 15.4426 12.7548L17.3901 16.1298C17.6176 16.5248 17.9927 16.5248 18.2202 16.1298L20.1676 12.7548C20.2801 12.5573 20.3377 12.2948 20.3377 12.0348Z" fill="#CFB675"/>
<path d="M24.4825 14.1448L23.48 15.8823C23.4725 15.8873 23.4651 15.8923 23.4576 15.8948H21.45L22.4525 14.1573C22.46 14.1523 22.4675 14.1473 22.475 14.1448H24.4825ZM26.8175 13.0123C26.8175 12.7773 26.6301 12.6123 26.3051 12.6123H22.4076C21.9501 12.6123 21.39 12.9373 21.1625 13.3323L19.2151 16.7073C19.1501 16.8223 19.1176 16.9298 19.1176 17.0273C19.1176 17.2648 19.305 17.4273 19.63 17.4273H23.5276C23.9851 17.4273 24.5451 17.1048 24.7726 16.7073L26.7201 13.3323C26.7851 13.2173 26.8175 13.1073 26.8175 13.0123Z" fill="#CFB675"/>
<path d="M14.1526 20.1062L13.1501 21.8437C13.1426 21.8487 13.135 21.8537 13.1275 21.8562H11.1201L12.1226 20.1187C12.1301 20.1137 12.1376 20.1087 12.1451 20.1062H14.1526ZM16.4876 18.9762C16.4876 18.7412 16.3 18.5762 15.975 18.5762H12.0775C11.62 18.5762 11.0601 18.8987 10.8326 19.2962L8.88504 22.6712C8.82004 22.7862 8.78754 22.8937 8.78754 22.9912C8.78754 23.2287 8.97505 23.3912 9.30005 23.3912H13.1975C13.655 23.3912 14.215 23.0687 14.4425 22.6712L16.3901 19.2962C16.4551 19.1812 16.4876 19.0712 16.4876 18.9762Z" fill="#CFB675"/>
<path d="M14.1526 15.8948H12.1451C12.1376 15.8898 12.1301 15.8873 12.1226 15.8823L11.1201 14.1448H13.1275C13.135 14.1498 13.1426 14.1523 13.1501 14.1573L14.1526 15.8948ZM16.4876 17.0273C16.4876 16.9298 16.4551 16.8223 16.3901 16.7073L14.4425 13.3323C14.215 12.9373 13.655 12.6123 13.1975 12.6123H9.30005C8.97505 12.6123 8.78754 12.7748 8.78754 13.0123C8.78754 13.1098 8.82004 13.2173 8.88504 13.3323L10.8326 16.7073C11.0601 17.1023 11.6225 17.4273 12.0775 17.4273H15.975C16.2975 17.4248 16.4876 17.2623 16.4876 17.0273Z" fill="#CFB675"/>
<path d="M24.4825 21.8592H22.475C22.4675 21.8542 22.46 21.8517 22.4525 21.8467L21.45 20.1092H23.4575C23.465 20.1142 23.4725 20.1167 23.48 20.1217L24.4825 21.8592ZM26.8175 22.9892C26.8175 22.8917 26.785 22.7842 26.72 22.6692L24.7725 19.2942C24.545 18.8992 23.985 18.5742 23.5275 18.5742H19.63C19.305 18.5742 19.1175 18.7367 19.1175 18.9742C19.1175 19.0717 19.15 19.1792 19.215 19.2942L21.1625 22.6692C21.39 23.0642 21.9525 23.3892 22.4075 23.3892H26.305C26.63 23.3892 26.8175 23.2267 26.8175 22.9892Z" fill="#CFB675"/>
<path d="M17.8025 32C16.9275 32 16.055 31.775 15.275 31.325L7.5275 26.8525C5.9675 25.9525 5 24.2725 5 22.4725V13.5275C5 11.7275 5.9675 10.05 7.5275 9.14751L15.275 4.675C16.835 3.775 18.7725 3.775 20.3325 4.675L28.0775 9.14751C29.6375 10.0475 30.6075 11.725 30.6075 13.5275V22.4725C30.6075 24.2725 29.6375 25.95 28.0775 26.8525L20.33 31.325C19.55 31.775 18.6775 32 17.8025 32ZM17.8025 5.52998C17.1925 5.52998 16.5825 5.68748 16.04 5.99998L8.29248 10.4725C7.20498 11.1 6.53 12.27 6.53 13.5275V22.4725C6.53 23.7275 7.20498 24.8975 8.29248 25.5275L16.0375 30C17.125 30.6275 18.4775 30.6275 19.5625 30L27.31 25.5275C28.3975 24.9 29.0725 23.73 29.0725 22.4725V13.5275C29.0725 12.2725 28.3975 11.1025 27.31 10.4725L19.5625 5.99998C19.02 5.68748 18.41 5.52998 17.8025 5.52998Z" fill="#CFB675"/>
</g>
</svg>
