<svg width="339" height="44" viewBox="0 0 339 44" fill="none" xmlns="http://www.w3.org/2000/svg">
<g clip-path="url(#clip0_70_24890)">
<path fill-rule="evenodd" clip-rule="evenodd" d="M338.363 28.9544V34.75H316.488V9.15853H337.974V14.6228H324.524V18.69H337V23.9095H324.524V28.9544H338.363ZM301.502 17.5378C305.006 18.283 307.516 19.0365 309.032 19.7983C310.548 20.5614 311.651 21.506 312.341 22.6349C313.031 23.7638 313.377 25.026 313.377 26.423C313.377 28.0634 312.917 29.5773 311.996 30.9619C311.076 32.3465 309.791 33.397 308.138 34.112C306.486 34.8284 304.403 35.1859 301.891 35.1859C297.477 35.1859 294.422 34.3485 292.723 32.6724C291.025 30.9963 290.062 28.8664 289.838 26.2842L297.466 25.8125C297.631 27.0335 297.967 27.9658 298.476 28.6052C299.301 29.6405 300.48 30.1589 302.015 30.1589C303.159 30.1589 304.042 29.8935 304.66 29.3642C305.281 28.8348 305.59 28.2215 305.59 27.523C305.59 26.8589 305.294 26.2663 304.704 25.7424C304.115 25.2185 302.746 24.7235 300.599 24.2588C297.083 23.4792 294.575 22.4438 293.077 21.1513C291.566 19.8602 290.811 18.2129 290.811 16.2109C290.811 14.8964 291.198 13.6534 291.971 12.4847C292.743 11.3145 293.907 10.396 295.458 9.72641C297.009 9.05678 299.136 8.72266 301.838 8.72266C305.153 8.72266 307.681 9.33041 309.421 10.5473C311.161 11.7628 312.197 13.6974 312.527 16.3512L304.97 16.787C304.769 15.6348 304.348 14.7974 303.705 14.2735C303.061 13.7497 302.174 13.4884 301.041 13.4884C300.109 13.4884 299.407 13.6837 298.935 14.0728C298.463 14.4633 298.227 14.9377 298.227 15.4959C298.227 15.9029 298.422 16.27 298.811 16.5959C299.189 16.9328 300.086 17.2477 301.502 17.5378ZM284.57 25.7452C285.131 26.4313 285.505 26.962 285.694 27.3347L289.577 34.75H280.517L276.232 26.929C275.689 25.917 275.205 25.2598 274.78 24.9573C274.203 24.5613 273.548 24.3633 272.817 24.3633H272.109V34.75H264.055V9.15853H277.418C279.895 9.15853 281.789 9.36891 283.099 9.78691C284.408 10.2063 285.464 10.9832 286.267 12.1175C287.069 13.2519 287.47 14.6352 287.47 16.2632C287.47 17.6835 287.164 18.9087 286.549 19.9385C285.936 20.9684 285.091 21.803 284.018 22.4438C283.333 22.8508 282.394 23.1877 281.202 23.4558C282.156 23.7707 282.853 24.0842 283.289 24.399C283.583 24.6094 284.011 25.0577 284.57 25.7452ZM278.621 14.9899C278.09 14.5472 277.093 14.3258 275.63 14.3258H272.109V19.5274H275.488C275.854 19.5274 276.562 19.4119 277.613 19.1795C278.144 19.0737 278.577 18.8069 278.914 18.3765C279.249 17.9462 279.418 17.4512 279.418 16.8915C279.418 16.0665 279.153 15.4313 278.621 14.9899ZM238.662 9.15853H260.148V14.6228H246.697V18.69H259.174V23.9095H246.697V28.9544H260.537V34.75H238.662V9.15853ZM218.643 34.75L208.845 9.15853H217.226L223.065 27.5753L228.831 9.15853H236.966L227.333 34.75H218.643ZM201.355 34.75L200.057 30.5247H190.955L189.69 34.75H181.504L191.256 9.15853H200.001L209.751 34.75H201.355ZM195.531 15.7929L192.697 24.9917H198.394L195.531 15.7929ZM173.331 15.2333L168.273 34.75H162.329L157.28 15.2333V34.75H150.713V9.15853H161.258L165.323 24.7304L169.36 9.15853H179.897V34.75H173.331V15.2333ZM144.136 25.7452C144.696 26.4313 145.071 26.962 145.259 27.3347L149.141 34.75H140.083L135.797 26.929C135.255 25.917 134.771 25.2598 134.346 24.9573C133.767 24.5613 133.113 24.3633 132.381 24.3633H131.673V34.75H123.621V9.15853H136.983C139.461 9.15853 141.354 9.36891 142.665 9.78691C143.974 10.2063 145.03 10.9832 145.833 12.1175C146.634 13.2519 147.036 14.6352 147.036 16.2632C147.036 17.6835 146.729 18.9087 146.115 19.9385C145.501 20.9684 144.657 21.803 143.582 22.4438C142.897 22.8508 141.959 23.1877 140.767 23.4558C141.722 23.7707 142.417 24.0842 142.855 24.399C143.149 24.6094 143.576 25.0577 144.136 25.7452ZM138.186 14.9899C137.656 14.5472 136.659 14.3258 135.196 14.3258H131.673V19.5274H135.054C135.42 19.5274 136.128 19.4119 137.177 19.1795C137.709 19.0737 138.142 18.8069 138.478 18.3765C138.815 17.9462 138.983 17.4512 138.983 16.8915C138.983 16.0665 138.717 15.4313 138.186 14.9899ZM112.178 30.5247H103.077L101.812 34.75H94.4793H93.6268H84.6068L79.1357 24.2258L74.9942 28.5048V34.75H66.9766V9.15853H74.9942V18.8303L83.3913 9.15853H94.0544L84.5862 18.8179L93.9499 33.8989L103.378 9.15853H112.123L121.872 34.75H113.476L112.178 30.5247ZM107.652 15.7929L104.818 24.9917H110.516L107.652 15.7929Z" fill="white"/>
<path fill-rule="evenodd" clip-rule="evenodd" d="M42.9548 32.8924C45.6704 35.443 49.3857 36.9307 53.4186 36.9307V44.2746C46.6274 44.2746 40.4647 41.2592 36.3314 36.5004L11.1029 11.474C8.35155 8.67998 4.45205 6.94611 0.206055 6.94611V-0.275391C6.44855 -0.275391 12.1548 2.26011 16.2207 6.34798L42.9548 32.8924ZM47.5198 8.09973C45.6113 8.88073 43.8981 10.0302 42.4873 11.474L35.2246 18.6281L30.1329 13.5585L37.2678 6.45661L37.2747 6.46211C41.3364 2.30686 47.1348 -0.275391 53.4186 -0.275391V26.1604H47.5198V8.09973ZM6.1048 35.8816C7.8153 35.1735 9.36905 34.1697 10.6849 32.9336L10.6753 32.924L18.4606 25.1759L23.5508 30.2469L17.3771 36.3904C13.2493 41.2125 7.0673 44.2746 0.206055 44.2746V17.8389H6.1048V35.8816Z" fill="url(#paint0_linear_70_24890)"/>
</g>
<defs>
<linearGradient id="paint0_linear_70_24890" x1="26.8123" y1="44.2581" x2="26.8123" y2="-0.258892" gradientUnits="userSpaceOnUse">
<stop stop-color="#0084FF"/>
<stop offset="1" stop-color="#FF0084"/>
</linearGradient>
<clipPath id="clip0_70_24890">
<rect width="338.25" height="44" fill="white"/>
</clipPath>
</defs>
</svg>
