<svg width="303" height="83" viewBox="0 0 303 83" fill="none" xmlns="http://www.w3.org/2000/svg">
<path d="M131.6 65.265C131.6 65.285 131.6 65.305 131.6 65.315L127.59 72.265L123.58 65.315C123.58 65.295 123.58 65.285 123.58 65.265C123.58 65.245 123.58 65.225 123.58 65.215L127.59 58.265L131.6 65.215C131.6 65.225 131.6 65.245 131.6 65.265ZM137.73 65.265C137.73 64.225 137.5 63.185 137.05 62.385L129.26 48.885C128.35 47.305 126.85 47.305 125.94 48.885L118.15 62.385C117.69 63.175 117.47 64.215 117.47 65.265C117.47 66.315 117.7 67.345 118.15 68.145L125.94 81.645C126.85 83.225 128.35 83.225 129.26 81.645L137.05 68.145C137.5 67.345 137.73 66.305 137.73 65.265Z" fill="#CFB675"/>
<path d="M131.6 17.565C131.6 17.585 131.6 17.605 131.6 17.615L127.59 24.565L123.58 17.615C123.58 17.595 123.58 17.585 123.58 17.565C123.58 17.545 123.58 17.525 123.58 17.515L127.59 10.565L131.6 17.515C131.6 17.525 131.6 17.545 131.6 17.565ZM137.73 17.565C137.73 16.525 137.5 15.475 137.05 14.685L129.26 1.185C128.35 -0.395 126.85 -0.395 125.94 1.185L118.15 14.685C117.69 15.475 117.47 16.515 117.47 17.565C117.47 18.605 117.7 19.645 118.15 20.445L125.94 33.945C126.85 35.525 128.35 35.525 129.26 33.945L137.05 20.445C137.5 19.645 137.73 18.605 137.73 17.565Z" fill="#CFB675"/>
<path d="M154.31 25.985L150.3 32.935C150.27 32.955 150.24 32.975 150.21 32.985H142.18L146.19 26.035C146.22 26.015 146.25 25.995 146.28 25.985H154.31ZM163.64 21.465C163.64 20.525 162.89 19.865 161.59 19.865H146.01C144.18 19.865 141.94 21.155 141.03 22.745L133.24 36.235C132.98 36.695 132.85 37.125 132.85 37.515C132.85 38.465 133.6 39.115 134.9 39.115H150.48C152.31 39.115 154.55 37.825 155.46 36.235L163.25 22.735C163.52 22.275 163.64 21.845 163.64 21.465Z" fill="#CFB675"/>
<path d="M113 49.835L108.99 56.785C108.96 56.805 108.93 56.825 108.9 56.835H100.87L104.88 49.885C104.91 49.865 104.94 49.845 104.97 49.835H113ZM122.33 45.315C122.33 44.375 121.58 43.715 120.28 43.715H104.7C102.87 43.715 100.63 45.005 99.72 46.595L91.9299 60.085C91.6699 60.545 91.54 60.975 91.54 61.365C91.54 62.315 92.2901 62.965 93.5901 62.965H109.17C111 62.965 113.24 61.675 114.15 60.085L121.94 46.585C122.21 46.135 122.33 45.695 122.33 45.315Z" fill="#CFB675"/>
<path d="M113 32.985H104.98C104.95 32.965 104.92 32.955 104.89 32.935L100.88 25.985H108.91C108.94 26.005 108.97 26.015 109 26.035L113 32.985ZM122.33 37.515C122.33 37.125 122.2 36.695 121.94 36.235L114.15 22.735C113.24 21.155 111 19.855 109.17 19.855H93.5901C92.2901 19.855 91.54 20.505 91.54 21.455C91.54 21.845 91.6599 22.275 91.9299 22.735L99.72 36.225C100.63 37.805 102.87 39.105 104.7 39.105H120.28C121.58 39.115 122.33 38.455 122.33 37.515Z" fill="#CFB675"/>
<path d="M154.31 56.835H146.29C146.26 56.815 146.23 56.805 146.2 56.785L142.19 49.835H150.22C150.25 49.855 150.28 49.865 150.31 49.885L154.31 56.835ZM163.64 61.365C163.64 60.975 163.51 60.545 163.25 60.085L155.46 46.585C154.55 45.005 152.31 43.705 150.48 43.705H134.9C133.6 43.705 132.85 44.355 132.85 45.305C132.85 45.695 132.98 46.125 133.24 46.585L141.03 60.075C141.94 61.655 144.18 62.945 146.01 62.955H161.59C162.89 62.965 163.64 62.305 163.64 61.365Z" fill="#CFB675"/>
<path d="M7.36011 62.165C4.26011 61.225 1.81 59.965 0 58.405L2.77002 52.185C4.53002 53.585 6.70002 54.725 9.27002 55.605C11.84 56.495 14.41 56.935 17 56.935C20.2 56.935 22.5899 56.425 24.1799 55.395C25.7599 54.365 26.55 53.015 26.55 51.325C26.55 50.095 26.11 49.075 25.23 48.275C24.35 47.475 23.2301 46.845 21.8701 46.395C20.5201 45.945 18.6701 45.425 16.3301 44.855C13.0401 44.075 10.3901 43.295 8.3501 42.515C6.3201 41.735 4.57011 40.515 3.11011 38.845C1.65011 37.185 0.919922 34.935 0.919922 32.105C0.919922 29.725 1.57011 27.555 2.86011 25.605C4.15011 23.655 6.09996 22.105 8.70996 20.955C11.32 19.805 14.51 19.235 18.29 19.235C20.92 19.235 23.51 19.565 26.05 20.225C28.6 20.885 30.7901 21.825 32.6401 23.055L30.1101 29.275C28.2201 28.165 26.25 27.325 24.2 26.745C22.15 26.175 20.15 25.885 18.23 25.885C15.07 25.885 12.7199 26.415 11.1799 27.485C9.63993 28.555 8.87012 29.975 8.87012 31.735C8.87012 32.965 9.30995 33.975 10.2 34.755C11.08 35.535 12.2 36.155 13.55 36.605C14.91 37.055 16.7501 37.575 19.0901 38.145C22.2901 38.885 24.92 39.655 26.97 40.455C29.02 41.255 30.78 42.475 32.24 44.125C33.7 45.765 34.4299 47.985 34.4299 50.775C34.4299 53.155 33.78 55.315 32.49 57.245C31.2 59.175 29.2401 60.715 26.6101 61.865C23.9801 63.015 20.78 63.585 17 63.585C13.67 63.585 10.4601 63.115 7.36011 62.165Z" fill="white"/>
<path d="M75.4199 21.705C78.1899 22.935 80.32 24.705 81.8 27.005C83.28 29.305 84.02 32.035 84.02 35.195C84.02 38.315 83.28 41.035 81.8 43.355C80.32 45.675 78.1999 47.455 75.4199 48.685C72.6499 49.915 69.3999 50.535 65.6599 50.535H55.9299V62.975H47.9199V19.855H65.6599C69.3899 19.855 72.6499 20.475 75.4199 21.705ZM73.23 41.535C75.04 40.055 75.9399 37.945 75.9399 35.185C75.9399 32.435 75.04 30.315 73.23 28.845C71.42 27.365 68.78 26.625 65.28 26.625H55.9199V43.745H65.28C68.78 43.755 71.42 43.015 73.23 41.535Z" fill="white"/>
<path d="M202.69 62.965L193.89 50.335C193.52 50.375 192.96 50.395 192.23 50.395H182.5V62.955H174.49V19.855H192.23C195.97 19.855 199.22 20.465 201.99 21.705C204.76 22.935 206.89 24.705 208.37 27.005C209.85 29.305 210.59 32.035 210.59 35.195C210.59 38.435 209.8 41.235 208.22 43.575C206.64 45.915 204.37 47.665 201.41 48.815L211.33 62.975H202.69V62.965ZM199.8 28.845C197.99 27.365 195.35 26.625 191.85 26.625H182.49V43.815H191.85C195.34 43.815 197.99 43.065 199.8 41.565C201.61 40.065 202.51 37.945 202.51 35.185C202.51 32.445 201.6 30.325 199.8 28.845Z" fill="white"/>
<path d="M257.38 56.255V62.965H225.05V19.855H256.52V26.565H233.06V37.775H253.88V44.365H233.06V56.255H257.38Z" fill="white"/>
<path d="M275.97 62.115C272.88 61.175 270.43 59.925 268.63 58.365L271.4 52.155C273.16 53.545 275.32 54.685 277.88 55.565C280.44 56.445 283.01 56.885 285.59 56.885C288.79 56.885 291.17 56.365 292.75 55.345C294.33 54.315 295.12 52.965 295.12 51.285C295.12 50.055 294.68 49.035 293.8 48.235C292.92 47.435 291.8 46.815 290.45 46.365C289.1 45.905 287.25 45.395 284.92 44.825C281.64 44.045 278.99 43.265 276.96 42.485C274.93 41.705 273.19 40.485 271.74 38.825C270.28 37.165 269.56 34.925 269.56 32.095C269.56 29.715 270.21 27.555 271.5 25.605C272.79 23.655 274.74 22.115 277.34 20.965C279.94 19.815 283.13 19.245 286.89 19.245C289.51 19.245 292.09 19.575 294.63 20.225C297.17 20.885 299.36 21.825 301.2 23.055L298.68 29.265C296.79 28.155 294.83 27.315 292.78 26.745C290.73 26.165 288.74 25.885 286.82 25.885C283.66 25.885 281.32 26.415 279.78 27.485C278.24 28.555 277.47 29.965 277.47 31.725C277.47 32.955 277.91 33.965 278.79 34.735C279.67 35.515 280.79 36.135 282.14 36.585C283.49 37.035 285.34 37.545 287.67 38.125C290.87 38.865 293.49 39.635 295.53 40.435C297.58 41.235 299.33 42.455 300.79 44.095C302.24 45.735 302.97 47.945 302.97 50.735C302.97 53.115 302.32 55.265 301.03 57.185C299.74 59.115 297.78 60.655 295.16 61.795C292.54 62.945 289.34 63.515 285.57 63.515C282.27 63.535 279.07 63.065 275.97 62.115Z" fill="white"/>
</svg>
