<svg width="30" height="26" viewBox="0 0 30 26" fill="none" xmlns="http://www.w3.org/2000/svg">
<path d="M14.9995 0C14.1508 0 13.3681 0.423649 12.9343 1.1556L0.326386 22.4577C-0.108071 23.1919 -0.109519 24.0987 0.326386 24.8321C0.689882 25.4436 1.37705 26.0022 2.22714 26H27.7732C28.6226 26.0036 29.3105 25.4436 29.674 24.8321C30.1099 24.0994 30.1084 23.1919 29.674 22.4577L17.066 1.1556C16.6316 0.423649 15.8481 0 14.9995 0ZM14.9995 1.62495C15.2529 1.62495 15.5534 1.79543 15.6707 1.99275L28.2786 23.2826C28.3959 23.4806 28.3959 23.7954 28.2786 23.9935C28.0889 24.3134 28.0259 24.375 27.7718 24.3743H2.22569C1.97153 24.3743 1.90853 24.3134 1.71882 23.9935C1.60152 23.7954 1.60152 23.4806 1.71882 23.2826L14.3268 1.99275C14.4441 1.7947 14.7453 1.62495 14.998 1.62495H14.9995ZM14.9995 7.41386C13.9843 7.41386 13.1617 8.33877 13.1617 9.47914L13.5295 15.675C13.5295 16.5876 14.1877 17.3268 15.0002 17.3268C15.8126 17.3268 16.4708 16.5869 16.4708 15.675L16.8387 9.47914C16.8372 8.33877 16.0146 7.41386 14.9995 7.41386ZM14.9995 18.0646C13.9843 18.0646 13.1617 18.8886 13.1617 19.9057C13.1617 20.9227 13.9843 21.7468 14.9995 21.7468C16.0146 21.7468 16.8372 20.9227 16.8372 19.9057C16.8372 18.8886 16.0146 18.0646 14.9995 18.0646Z" fill="#DA5B00"/>
</svg>
