<svg width="23" height="24" viewBox="0 0 23 24" fill="none" xmlns="http://www.w3.org/2000/svg">
<path d="M0.5 8.15889V15.8522C0.501139 16.6088 0.702742 17.3517 1.08429 18.0051C1.46583 18.6585 2.01369 19.1992 2.67211 19.5721L9.53229 23.4537C10.1797 23.812 10.9076 24 11.6476 24C12.3876 24 13.1154 23.812 13.7629 23.4537L20.6231 19.5721C21.2815 19.1992 21.8294 18.6585 22.211 18.0051C22.5926 17.3517 22.7943 16.6089 22.7956 15.8522V8.15889C22.7945 7.40221 22.5929 6.65934 22.2114 6.0059C21.8298 5.35246 21.2819 4.8118 20.6235 4.43895L13.7633 0.556944C13.1179 0.191865 12.3889 0 11.6474 0C10.9058 0 10.1769 0.191865 9.53144 0.556944L2.67125 4.43852C2.01296 4.81158 1.46525 5.35238 1.08387 6.00587C0.702477 6.65937 0.501022 7.40224 0.5 8.15889V8.15889ZM3.30539 5.55802L10.1656 1.67644C10.6181 1.42199 11.1285 1.28833 11.6476 1.28833C12.1667 1.28833 12.6771 1.42199 13.1296 1.67644L19.9898 5.55802C20.4503 5.81857 20.8336 6.19653 21.1005 6.65341C21.3674 7.11029 21.5085 7.62975 21.5093 8.15889V15.8522C21.5084 16.3812 21.3673 16.9006 21.1004 17.3574C20.8335 17.8142 20.4503 18.1921 19.9898 18.4526L13.1296 22.3342C12.6771 22.5886 12.1667 22.7222 11.6476 22.7222C11.1285 22.7222 10.6181 22.5886 10.1656 22.3342L3.30539 18.4526C2.84508 18.1919 2.46202 17.814 2.19519 17.3572C1.92836 16.9004 1.78727 16.3812 1.78628 15.8522V8.15889C1.7872 7.62982 1.92825 7.11044 2.19508 6.65359C2.46192 6.19674 2.84501 5.81873 3.30539 5.55802V5.55802Z" fill="white"/>
<path d="M3.72814 17.708L10.5883 21.5896C10.912 21.7711 11.2769 21.8665 11.648 21.8665C12.0191 21.8665 12.384 21.7711 12.7077 21.5896L19.5679 17.708C19.8964 17.5221 20.1698 17.2524 20.3602 16.9264C20.5506 16.6005 20.6512 16.2299 20.6518 15.8524V8.15908C20.6513 7.7815 20.5508 7.41079 20.3604 7.08473C20.17 6.75867 19.8965 6.48892 19.5679 6.30297L12.7077 2.42096C12.3841 2.23909 12.0192 2.14355 11.648 2.14355C11.2768 2.14355 10.9119 2.23909 10.5883 2.42096L3.72814 6.30297C3.39941 6.48883 3.12585 6.75855 2.93536 7.08462C2.74487 7.41069 2.64426 7.78145 2.6438 8.15908V15.8524C2.64438 16.2299 2.74504 16.6006 2.93552 16.9265C3.126 17.2525 3.3995 17.5222 3.72814 17.708V17.708ZM15.0779 8.14665H18.508C18.6217 8.14665 18.7308 8.19182 18.8112 8.27223C18.8916 8.35264 18.9367 8.46169 18.9367 8.57541C18.9367 8.68912 18.8916 8.79818 18.8112 8.87859C18.7308 8.959 18.6217 9.00417 18.508 9.00417H17.2217V15.4356C17.2217 15.5493 17.1765 15.6584 17.0961 15.7388C17.0157 15.8192 16.9066 15.8644 16.7929 15.8644C16.6792 15.8644 16.5702 15.8192 16.4898 15.7388C16.4093 15.6584 16.3642 15.5493 16.3642 15.4356V9.00417H15.0779C14.9642 9.00417 14.8551 8.959 14.7747 8.87859C14.6943 8.79818 14.6491 8.68912 14.6491 8.57541C14.6491 8.46169 14.6943 8.35264 14.7747 8.27223C14.8551 8.19182 14.9642 8.14665 15.0779 8.14665ZM9.93275 8.57541C9.93275 8.46169 9.97792 8.35264 10.0583 8.27223C10.1387 8.19182 10.2478 8.14665 10.3615 8.14665H13.7916C13.9053 8.14665 14.0144 8.19182 14.0948 8.27223C14.1752 8.35264 14.2204 8.46169 14.2204 8.57541C14.2204 8.68912 14.1752 8.79818 14.0948 8.87859C14.0144 8.959 13.9053 9.00417 13.7916 9.00417H10.7903V11.5767H12.5053C12.619 11.5767 12.7281 11.6219 12.8085 11.7023C12.8889 11.7827 12.9341 11.8918 12.9341 12.0055C12.9341 12.1192 12.8889 12.2283 12.8085 12.3087C12.7281 12.3891 12.619 12.4343 12.5053 12.4343H10.7903V15.4356C10.7903 15.5493 10.7451 15.6584 10.6647 15.7388C10.5843 15.8192 10.4752 15.8644 10.3615 15.8644C10.2478 15.8644 10.1387 15.8192 10.0583 15.7388C9.97792 15.6584 9.93275 15.5493 9.93275 15.4356V8.57541ZM4.35885 8.57541C4.35876 8.47874 4.39133 8.38488 4.4513 8.30905C4.51126 8.23323 4.59508 8.17989 4.68917 8.1577C4.78326 8.1355 4.88208 8.14576 4.96961 8.18679C5.05714 8.22783 5.12823 8.29723 5.17135 8.38375L7.78894 13.6194V8.57541C7.78894 8.46169 7.83411 8.35264 7.91452 8.27223C7.99493 8.19182 8.10399 8.14665 8.2177 8.14665C8.33142 8.14665 8.44047 8.19182 8.52088 8.27223C8.60129 8.35264 8.64646 8.46169 8.64646 8.57541V15.4356C8.64654 15.5322 8.61398 15.626 8.55405 15.7018C8.49413 15.7776 8.41035 15.831 8.31632 15.8532C8.28395 15.8605 8.25088 15.8642 8.2177 15.8644C8.13802 15.8644 8.05991 15.8422 7.99213 15.8003C7.92435 15.7585 7.86957 15.6985 7.83396 15.6273L5.21637 10.3916V15.4356C5.21637 15.5493 5.1712 15.6584 5.09079 15.7388C5.01038 15.8192 4.90132 15.8644 4.78761 15.8644C4.67389 15.8644 4.56484 15.8192 4.48443 15.7388C4.40402 15.6584 4.35885 15.5493 4.35885 15.4356V8.57541Z" fill="white"/>
</svg>
