<svg width="24" height="24" viewBox="0 0 24 24" fill="none" xmlns="http://www.w3.org/2000/svg">
<path d="M13.5773 14.5267C14.2804 14.5267 14.9093 13.9822 14.9093 13.1992C14.9093 12.2632 14.3164 11.8154 13.6043 11.8154C12.945 11.8154 12.2903 12.2508 12.2903 13.1767C12.2903 14.0958 12.9012 14.5267 13.5773 14.5267V14.5267Z" fill="white"/>
<path d="M6.9375 3C7.08668 3 7.22976 3.05926 7.33525 3.16475C7.44074 3.27024 7.5 3.41332 7.5 3.5625V4.125H16.5V3.5625C16.5 3.41332 16.5593 3.27024 16.6648 3.16475C16.7702 3.05926 16.9133 3 17.0625 3C17.2117 3 17.3548 3.05926 17.4602 3.16475C17.5657 3.27024 17.625 3.41332 17.625 3.5625V4.125H18.75C19.3467 4.125 19.919 4.36205 20.341 4.78401C20.7629 5.20597 21 5.77826 21 6.375V18.75C21 19.3467 20.7629 19.919 20.341 20.341C19.919 20.7629 19.3467 21 18.75 21H5.25C4.65326 21 4.08097 20.7629 3.65901 20.341C3.23705 19.919 3 19.3467 3 18.75V6.375C3 5.77826 3.23705 5.20597 3.65901 4.78401C4.08097 4.36205 4.65326 4.125 5.25 4.125H6.375V3.5625C6.375 3.41332 6.43426 3.27024 6.53975 3.16475C6.64524 3.05926 6.78832 3 6.9375 3V3ZM18.1358 6.375H5.86313C5.52563 6.375 5.25 6.627 5.25 6.9375V8.0625C5.25 8.373 5.5245 8.625 5.86313 8.625H18.1369C18.4744 8.625 18.75 8.373 18.75 8.0625V6.9375C18.75 6.627 18.4755 6.375 18.1358 6.375ZM13.503 17.3887C14.9183 17.3887 15.753 16.1884 15.753 14.1578C15.753 11.982 14.8744 11.1562 13.5559 11.1562C12.5141 11.1562 11.5342 11.9123 11.5342 13.1914C11.5342 14.4964 12.4613 15.1826 13.4198 15.1826C14.259 15.1826 14.8035 14.7596 14.9756 14.2939H15.006C15.0015 15.7744 14.4874 16.7284 13.5379 16.7284C12.7909 16.7284 12.4039 16.2221 12.3566 15.8059H11.5871C11.64 16.5259 12.2554 17.3876 13.503 17.3876V17.3887ZM10.2518 11.2744H9.53963C9.02924 11.5458 8.53595 11.8483 8.0625 12.18V12.9619C8.48438 12.6727 9.15262 12.2644 9.47775 12.0878H9.49125V17.274H10.2506V11.2733L10.2518 11.2744Z" fill="white"/>
</svg>
