<svg width="25" height="24" viewBox="0 0 25 24" fill="none" xmlns="http://www.w3.org/2000/svg">
<g clip-path="url(#clip0_1130_35262)">
<path d="M12.5102 11.1894L16.6473 8.80172L12.5102 6.41309L8.37292 8.80172L12.5102 11.1894Z" fill="white"/>
<path d="M17.3501 10.0186L13.2128 12.4063V17.1851L17.3501 14.7963V10.0186Z" fill="white"/>
<path d="M11.8077 12.4063L7.67017 10.0186V14.7963L11.8077 17.1851V12.4063Z" fill="white"/>
<path d="M22.0574 14.4231L24.4828 11.9978L22.0574 9.57227L21.0639 10.5658L21.7951 11.297H18.7551V12.702H21.7915L21.0639 13.4297L22.0574 14.4231Z" fill="white"/>
<path d="M11.7986 2.68593V5.20139L12.5103 4.79051L13.2037 5.19086V2.70879L13.9216 3.42672L14.9151 2.43321L12.4897 0.0078125L10.0642 2.43321L11.0577 3.42672L11.7986 2.68593Z" fill="white"/>
<path d="M16.452 7.06602L17.7117 7.79332L20.7899 4.71513C21.1549 4.91577 21.5663 5.02284 21.9943 5.02284C22.6636 5.02284 23.2929 4.7622 23.7661 4.28893C24.743 3.31205 24.743 1.72237 23.7662 0.745394C22.7892 -0.231538 21.1996 -0.231538 20.2225 0.745394C19.418 1.54993 19.2767 2.7697 19.7972 3.72087L16.452 7.06602Z" fill="white"/>
<path d="M23.7661 19.7142C22.9616 18.9097 21.7419 18.7684 20.7907 19.2889L17.7117 16.21L16.452 16.9373L19.7972 20.2824C19.2767 21.2336 19.418 22.4533 20.2226 23.2578C20.7111 23.7463 21.3527 23.9905 21.9943 23.9905C22.636 23.9905 23.2776 23.7463 23.7661 23.2578C24.2393 22.7846 24.5 22.1553 24.5 21.486C24.5 20.8167 24.2393 20.1875 23.7661 19.7142Z" fill="white"/>
<path d="M13.2035 21.2931V18.8123L12.5102 19.2126L11.7985 18.8018V21.3089L11.0613 20.5717L10.0677 21.5651L12.4931 23.9906L14.9186 21.5651L13.9251 20.5717L13.2035 21.2931Z" fill="white"/>
<path d="M8.56835 16.9373L7.30863 16.21L4.23045 19.2881C3.86551 19.0875 3.45411 18.9804 3.02608 18.9804C2.35677 18.9804 1.72754 19.2411 1.25427 19.7143C0.277385 20.6913 0.277385 22.2809 1.25427 23.2579C1.72749 23.7311 2.35677 23.9918 3.02608 23.9918C3.6954 23.9918 4.32463 23.7311 4.79785 23.2579C5.60238 22.4534 5.74373 21.2337 5.22321 20.2824L8.56835 16.9373Z" fill="white"/>
<path d="M3.02603 5.02162C3.44118 5.02162 3.85604 4.91872 4.22969 4.71429L7.30863 7.79327L8.56835 7.06597L5.22395 3.72157C5.4246 3.35663 5.53166 2.94523 5.53166 2.51721C5.53166 1.84789 5.27102 1.21862 4.79776 0.745394C3.82087 -0.231491 2.2312 -0.231584 1.25422 0.745394C0.27724 1.72233 0.27724 3.312 1.25422 4.28898C1.74271 4.77737 2.38435 5.02162 3.02603 5.02162V5.02162Z" fill="white"/>
<path d="M3.91896 13.4326L3.18772 12.7014H6.26516V11.2963H3.19133L3.91896 10.5687L2.9254 9.5752L0.5 12.0007L2.9254 14.4261L3.91896 13.4326Z" fill="white"/>
</g>
<defs>
<clipPath id="clip0_1130_35262">
<rect width="24" height="24" fill="white" transform="translate(0.5)"/>
</clipPath>
</defs>
</svg>
