<svg width="25" height="24" viewBox="0 0 25 24" fill="none" xmlns="http://www.w3.org/2000/svg">
<path d="M11.5833 13.6045C11.5833 13.2259 11.2735 12.917 10.8958 12.917H7.45833V15.667C7.45833 16.173 7.04767 16.5837 6.54167 16.5837C6.03567 16.5837 5.625 16.173 5.625 15.667V12.917H2.1875C1.80892 12.917 1.5 13.2259 1.5 13.6045V22.3128C1.5 22.6914 1.80892 23.0003 2.1875 23.0003H10.8958C11.2735 23.0003 11.5833 22.6914 11.5833 22.3128V13.6045Z" fill="white"/>
<path d="M23.5 13.6045C23.5 13.2259 23.1901 12.917 22.8125 12.917H19.375V15.667C19.375 16.173 18.9643 16.5837 18.4583 16.5837C17.9523 16.5837 17.5416 16.173 17.5416 15.667V12.917H14.1041C13.7255 12.917 13.4166 13.2259 13.4166 13.6045V22.3128C13.4166 22.6914 13.7255 23.0003 14.1041 23.0003H22.8125C23.1901 23.0003 23.5 22.6914 23.5 22.3128V13.6045Z" fill="white"/>
<path d="M17.5417 1.6875C17.5417 1.30983 17.2319 1 16.8542 1H13.4167V3.75C13.4167 4.256 13.006 4.66667 12.5 4.66667C11.994 4.66667 11.5834 4.256 11.5834 3.75V1H8.14587C7.76729 1 7.45837 1.30983 7.45837 1.6875V10.3958C7.45837 10.7744 7.76729 11.0833 8.14587 11.0833H16.8542C17.2319 11.0833 17.5417 10.7744 17.5417 10.3958V1.6875Z" fill="white"/>
</svg>
