<svg width="24" height="24" viewBox="0 0 24 24" fill="none" xmlns="http://www.w3.org/2000/svg">
<path d="M15.6103 12.888L17.9117 13.3247C17.9355 14.4039 18.87 15.2603 19.9988 15.2375C21.1276 15.2147 22.0234 14.3213 21.9995 13.2422C21.9757 12.163 21.0412 11.3066 19.9124 11.3294C19.1197 11.3454 18.4081 11.7983 18.0867 12.4913L15.7256 12.0432C15.7232 11.2173 15.3869 10.4241 14.7871 9.82958L17.8431 5.70242C19.1321 6.28836 20.6738 5.76438 21.2867 4.5321C21.8996 3.29982 21.3515 1.8259 20.0625 1.23996C18.7736 0.654027 17.2318 1.17801 16.6189 2.41029C16.1511 3.35098 16.3505 4.4711 17.1177 5.21075L14.0912 9.29799C12.6994 8.49884 10.9087 8.76742 9.83966 9.93557L5.86645 6.98566C6.38798 6.02594 5.997 4.84371 4.99312 4.34513C3.98925 3.84654 2.75262 4.22032 2.23109 5.18004C1.70956 6.13975 2.10054 7.32198 3.10442 7.82057C3.80979 8.17092 4.6635 8.09951 5.29446 7.63737L9.3443 10.6441C8.67139 11.9584 9.01435 13.5416 10.1779 14.4922L7.71675 17.819C6.41376 17.063 4.71641 17.46 3.92567 18.7057C3.13493 19.9514 3.55019 21.5741 4.85324 22.33C6.15622 23.086 7.85358 22.689 8.64432 21.4433C9.25883 20.4752 9.15862 19.2401 8.39523 18.3742L10.9228 14.9568C11.7876 15.3499 12.7868 15.3714 13.6691 15.0157L16.6682 19.2512C15.7861 20.1427 15.8271 21.5491 16.7596 22.3923C17.6922 23.2356 19.1633 23.1964 20.0453 22.3049C20.9274 21.4133 20.8864 20.007 19.9538 19.1637C19.2662 18.5419 18.2528 18.3809 17.3918 18.7566L14.4359 14.5822C15.0083 14.1534 15.4204 13.5591 15.6103 12.888Z" fill="white"/>
</svg>
