<svg id="Layer_1" data-name="Layer 1" xmlns="http://www.w3.org/2000/svg" xmlns:xlink="http://www.w3.org/1999/xlink" viewBox="0 0 500 500"><defs><style>.cls-1{fill:none;}.cls-2{clip-path:url(#clip-path);}.cls-3{fill:url(#radial-gradient);}.cls-4{fill:url(#radial-gradient-2);}</style><clipPath id="clip-path"><path class="cls-1" d="M191.14,7.28C57.09,39.79-25.23,174.81,7.28,308.86S174.81,525.23,308.86,492.72,525.23,325.19,492.72,191.14,325.19-25.23,191.14,7.28ZM318.27,301.63c-60.84,80.45-140.73,122.56-178.43,94.05s-19-116.85,41.89-197.31S322.46,75.81,360.16,104.32,379.11,221.17,318.27,301.63Z"/></clipPath><radialGradient id="radial-gradient" cx="741.37" cy="82.2" r="650.44" gradientTransform="translate(-320.81 137.48) rotate(-13.63)" gradientUnits="userSpaceOnUse"><stop offset="0.03" stop-color="#c0f0fc"/><stop offset="0.16" stop-color="#c14cfc"/><stop offset="1" stop-color="#0016c2"/></radialGradient><radialGradient id="radial-gradient-2" cx="488.37" cy="398.28" r="490.12" gradientTransform="translate(-320.81 137.48) rotate(-13.63)" gradientUnits="userSpaceOnUse"><stop offset="0.01" stop-color="#8dbafc"/><stop offset="0.22" stop-color="#c14cfc"/><stop offset="1" stop-color="#0016c2"/></radialGradient></defs><g class="cls-2"><path class="cls-3" d="M191.14,7.28C57.09,39.79-25.23,174.81,7.28,308.86S174.81,525.23,308.86,492.72,525.23,325.19,492.72,191.14,325.19-25.23,191.14,7.28ZM318.27,301.63c-60.84,80.45-140.73,122.56-178.43,94.05s-19-116.85,41.89-197.31S322.46,75.81,360.16,104.32,379.11,221.17,318.27,301.63Z"/><circle class="cls-4" cx="250" cy="250" r="199.97"/><path class="cls-1" d="M492.72,191.14c32.51,134.05-49.81,269.07-183.86,301.58S39.79,442.91,7.28,308.86,57.09,39.79,191.14,7.28,460.21,57.09,492.72,191.14Z"/></g></svg>