<svg width="60" height="60" viewBox="0 0 60 60" fill="none" xmlns="http://www.w3.org/2000/svg">
<rect width="60" height="60" rx="30" fill="#1C89DB"/>
<path d="M48.0001 36.3633C48.0001 31.896 45.4372 27.909 41.5989 25.9697C41.4797 34.5352 34.5352 41.4796 25.9697 41.5988C27.9091 45.4372 31.896 48 36.3633 48C38.4579 48 40.4948 47.4422 42.2844 46.3823L47.9492 47.9492L46.3823 42.2844C47.4422 40.4947 48.0001 38.4578 48.0001 36.3633Z" fill="white"/>
<path d="M39.4922 25.7461C39.4922 18.1664 33.3258 12 25.7461 12C18.1664 12 12 18.1664 12 25.7461C12 28.2164 12.6575 30.6216 13.9061 32.7331L12.0505 39.4414L18.7591 37.5861C20.8706 38.8347 23.2758 39.4922 25.7461 39.4922C33.3258 39.4922 39.4922 33.3258 39.4922 25.7461ZM23.6367 22.5469H21.5273C21.5273 20.2205 23.4197 18.3281 25.7461 18.3281C28.0724 18.3281 29.9648 20.2205 29.9648 22.5469C29.9648 23.7276 29.465 24.8625 28.5929 25.6601L26.8008 27.3004V28.9453H24.6914V26.3715L27.1688 24.1039C27.6116 23.6988 27.8555 23.1459 27.8555 22.5469C27.8555 21.3837 26.9093 20.4375 25.7461 20.4375C24.5829 20.4375 23.6367 21.3837 23.6367 22.5469ZM24.6914 31.0547H26.8008V33.1641H24.6914V31.0547Z" fill="white"/>
</svg>
