<svg width="25" height="24" viewBox="0 0 25 24" fill="none" xmlns="http://www.w3.org/2000/svg">
<rect width="24" height="24" transform="translate(0.5)" fill="white" fill-opacity="0.01"/>
<path fill-rule="evenodd" clip-rule="evenodd" d="M13.81 5.34272L21.169 18.5127C21.2539 18.6649 21.2975 18.8366 21.2955 19.0108C21.2936 19.1851 21.2462 19.3558 21.158 19.506C21.0698 19.6563 20.9438 19.7809 20.7926 19.8675C20.6414 19.9541 20.4702 19.9997 20.296 19.9997H4.70401C4.52963 19.9997 4.35828 19.9542 4.20695 19.8675C4.05562 19.7809 3.92958 19.6562 3.84134 19.5058C3.7531 19.3553 3.70572 19.1845 3.70391 19.0101C3.7021 18.8357 3.74592 18.6639 3.83101 18.5117L11.191 5.34272C11.3213 5.10996 11.5112 4.91614 11.7413 4.78123C11.9714 4.64632 12.2333 4.5752 12.5 4.5752C12.7667 4.5752 13.0286 4.64632 13.2587 4.78123C13.4888 4.91614 13.6788 5.10996 13.809 5.34272H13.81ZM12.5 8.49972C12.3442 8.49971 12.1903 8.53306 12.0484 8.59752C11.9066 8.66199 11.7803 8.75608 11.6778 8.87347C11.5754 8.99085 11.4993 9.12881 11.4547 9.27805C11.41 9.4273 11.3979 9.58438 11.419 9.73872L11.932 13.5047C11.9503 13.6424 12.018 13.7687 12.1225 13.8602C12.227 13.9517 12.3611 14.0022 12.5 14.0022C12.6389 14.0022 12.7731 13.9517 12.8775 13.8602C12.982 13.7687 13.0497 13.6424 13.068 13.5047L13.581 9.73872C13.6021 9.58438 13.59 9.4273 13.5453 9.27805C13.5007 9.12881 13.4246 8.99085 13.3222 8.87347C13.2198 8.75608 13.0934 8.66199 12.9516 8.59752C12.8098 8.53306 12.6558 8.49971 12.5 8.49972V8.49972ZM12.5 17.1297C12.7984 17.1297 13.0845 17.0112 13.2955 16.8002C13.5065 16.5892 13.625 16.3031 13.625 16.0047C13.625 15.7064 13.5065 15.4202 13.2955 15.2092C13.0845 14.9982 12.7984 14.8797 12.5 14.8797C12.2016 14.8797 11.9155 14.9982 11.7045 15.2092C11.4935 15.4202 11.375 15.7064 11.375 16.0047C11.375 16.3031 11.4935 16.5892 11.7045 16.8002C11.9155 17.0112 12.2016 17.1297 12.5 17.1297V17.1297Z" fill="#FF4841"/>
</svg>
