<svg width="28" height="28" viewBox="0 0 28 28" fill="none" xmlns="http://www.w3.org/2000/svg">
<circle cx="14" cy="14" r="14" fill="#DE5959"/>
<path d="M11.8345 13.8411L11.6596 13.6662C11.5274 13.5341 11.3025 13.6269 11.3025 13.8126V16.3012C11.3025 16.4154 11.3953 16.5083 11.5132 16.5083H14.0018C14.1874 16.5083 14.2803 16.2833 14.1482 16.1512C14.0661 16.0691 14.0661 15.937 14.1482 15.8584L16.7975 13.202C16.8796 13.1199 16.8796 12.9878 16.7975 12.9092L16.5547 12.67C16.4226 12.5379 16.5154 12.313 16.7011 12.313H19.1897C19.3039 12.313 19.4003 12.4058 19.4003 12.52V15.0087C19.4003 15.1943 19.1754 15.2872 19.0433 15.155L18.8755 14.9872C18.7934 14.9051 18.6613 14.9051 18.5827 14.9872L14.116 19.4503C14.0339 19.5324 13.9018 19.5324 13.8197 19.4503L8.35687 13.9875C8.27475 13.9054 8.27475 13.7733 8.35687 13.6912L15.9263 6.13603C16.0084 6.05391 16.0084 5.92181 15.9263 5.83969L14.1482 4.06159C14.0661 3.97947 13.9339 3.97947 13.8518 4.06159L4.06159 13.8518C3.97947 13.9339 3.97947 14.0661 4.06159 14.1482L13.8518 23.9384C13.9339 24.0205 14.0661 24.0205 14.1482 23.9384L23.9384 14.1482C24.0205 14.0661 24.0205 13.9339 23.9384 13.8518L18.1757 8.09622C18.0935 8.0141 17.9614 8.0141 17.8793 8.09622L12.1309 13.8447C12.0487 13.9232 11.9166 13.9232 11.8345 13.8411Z" fill="white"/>
</svg>
