<svg width="16" height="16" viewBox="0 0 16 16" fill="none" xmlns="http://www.w3.org/2000/svg">
<path d="M7.14319 1.42372C7.53185 0.777901 8.46815 0.777901 8.85681 1.42372L10.744 4.55957C10.8836 4.79158 11.1114 4.95705 11.3752 5.01814L14.9407 5.84393C15.675 6.014 15.9643 6.90447 15.4702 7.47367L13.071 10.2375C12.8935 10.442 12.8065 10.7097 12.83 10.9795L13.1464 14.6257C13.2116 15.3766 12.4541 15.927 11.7601 15.633L8.39009 14.2053C8.14076 14.0996 7.85924 14.0996 7.60991 14.2053L4.23995 15.633C3.54591 15.927 2.78843 15.3766 2.8536 14.6257L3.17005 10.9795C3.19346 10.7097 3.10647 10.442 2.92896 10.2375L0.529762 7.47367C0.0356538 6.90447 0.324986 6.014 1.0593 5.84393L4.62483 5.01814C4.88864 4.95705 5.11639 4.79158 5.25601 4.55957L7.14319 1.42372Z" fill="white"/>
</svg>
