<svg width="28" height="28" viewBox="0 0 28 28" fill="none" xmlns="http://www.w3.org/2000/svg">
<circle cx="14" cy="14" r="14" fill="white"/>
<path d="M11.4889 9.00371C11.2506 8.96967 11.2393 8.95833 11.3528 8.94698C11.5683 8.91294 12.0676 8.95833 12.4193 9.03775C13.2362 9.23063 13.9737 9.72986 14.7566 10.6035L14.9608 10.8418L15.2558 10.7964C16.5152 10.5922 17.8087 10.751 18.8865 11.2502C19.1815 11.3864 19.6467 11.6587 19.7035 11.7268C19.7261 11.7495 19.7602 11.897 19.7829 12.0445C19.8623 12.5777 19.8283 12.9748 19.6581 13.2812C19.5673 13.4514 19.5673 13.4968 19.624 13.6443C19.6694 13.7577 19.8056 13.8371 19.9304 13.8371C20.2027 13.8371 20.4863 13.406 20.6225 12.8046L20.6792 12.5664L20.7813 12.6798C21.36 13.3266 21.8138 14.2229 21.8819 14.8583L21.9046 15.0285L21.8025 14.881C21.6323 14.62 21.4734 14.4498 21.2579 14.3023C20.8721 14.0414 20.4636 13.9619 19.3858 13.9052C18.41 13.8485 17.854 13.7691 17.3094 13.5875C16.3791 13.2812 15.9025 12.8841 14.802 11.4204C14.3141 10.7737 14.0077 10.422 13.7014 10.127C13.032 9.48025 12.3626 9.13986 11.4889 9.00371Z" fill="#FF007A"/>
<path d="M19.9417 10.445C19.9644 10.0139 20.0211 9.73021 20.1459 9.46925C20.1913 9.36714 20.2367 9.27637 20.248 9.27637C20.2594 9.27637 20.2367 9.35579 20.2026 9.44656C20.1119 9.69617 20.1005 10.0479 20.1573 10.445C20.2367 10.9556 20.2707 11.0237 20.8153 11.5796C21.0649 11.8406 21.3599 12.1696 21.4734 12.3058L21.6663 12.5554L21.4734 12.3738C21.2351 12.1469 20.6905 11.7158 20.5657 11.659C20.4863 11.6137 20.4749 11.6137 20.4182 11.6704C20.3728 11.7158 20.3615 11.7838 20.3615 12.1129C20.3501 12.6235 20.2821 12.9411 20.1119 13.2702C20.0211 13.4404 20.0098 13.4063 20.0892 13.2134C20.1459 13.066 20.1573 12.9979 20.1573 12.51C20.1573 11.5229 20.0438 11.2846 19.3517 10.8875C19.1815 10.7854 18.8865 10.6379 18.7163 10.5585C18.5348 10.479 18.3986 10.411 18.41 10.411C18.4327 10.3883 19.1021 10.5812 19.363 10.6946C19.7601 10.8535 19.8282 10.8648 19.8736 10.8535C19.9076 10.8194 19.9303 10.7287 19.9417 10.445Z" fill="#FF007A"/>
<path d="M11.9541 12.1347C11.4776 11.4766 11.1712 10.4555 11.2393 9.6953L11.262 9.45703L11.3755 9.47972C11.5797 9.51376 11.9314 9.64991 12.1016 9.75203C12.5555 10.0243 12.7597 10.3988 12.9526 11.3291C13.0093 11.6014 13.0887 11.9191 13.1228 12.0212C13.1795 12.1914 13.3951 12.5885 13.5766 12.8382C13.7014 13.0197 13.622 13.1105 13.3383 13.0878C12.9072 13.0424 12.3285 12.6453 11.9541 12.1347Z" fill="#FF007A"/>
<path d="M19.363 17.071C17.1165 16.1633 16.3222 15.3804 16.3222 14.0529C16.3222 13.86 16.3336 13.7012 16.3336 13.7012C16.3449 13.7012 16.4244 13.7692 16.5265 13.8487C16.9803 14.2117 17.4909 14.3706 18.9091 14.5748C19.7374 14.6996 20.2139 14.7904 20.6451 14.9379C22.018 15.3917 22.8689 16.3221 23.0732 17.5815C23.1299 17.9446 23.0958 18.6367 23.0051 18.9998C22.9257 19.2834 22.6987 19.8054 22.642 19.8167C22.6307 19.8167 22.608 19.76 22.608 19.6692C22.5853 19.1927 22.347 18.7388 21.9499 18.3871C21.4734 17.9786 20.8607 17.6723 19.363 17.071Z" fill="#FF007A"/>
<path d="M17.7746 17.4456C17.7519 17.2754 17.6952 17.0598 17.6612 16.969L17.6044 16.7988L17.7065 16.9236C17.854 17.0938 17.9675 17.2981 18.0696 17.5817C18.149 17.7973 18.149 17.8654 18.149 18.2171C18.149 18.5575 18.1377 18.6369 18.0696 18.8298C17.9562 19.1361 17.82 19.3517 17.5931 19.59C17.1846 20.0098 16.6514 20.2367 15.8912 20.3388C15.755 20.3501 15.3693 20.3842 15.0289 20.4069C14.1779 20.4523 13.6106 20.543 13.1 20.7246C13.032 20.7473 12.9639 20.7699 12.9525 20.7586C12.9299 20.7359 13.2816 20.5317 13.5652 20.3955C13.9623 20.2026 14.3708 20.1005 15.2671 19.9417C15.7096 19.8736 16.1635 19.7828 16.2769 19.7375C17.4002 19.3857 17.9562 18.5121 17.7746 17.4456Z" fill="#FF007A"/>
<path d="M18.807 19.2718C18.512 18.6251 18.444 18.0124 18.6028 17.4338C18.6255 17.377 18.6482 17.3203 18.6709 17.3203C18.6936 17.3203 18.7616 17.3544 18.8297 17.3997C18.9659 17.4905 19.2495 17.6493 19.9757 18.0465C20.8947 18.5457 21.4166 18.9315 21.7797 19.3739C22.0974 19.7597 22.2903 20.2022 22.381 20.7468C22.4378 21.0532 22.4037 21.7907 22.3243 22.097C22.0747 23.0614 21.5074 23.833 20.6791 24.2754C20.5543 24.3435 20.4522 24.3889 20.4409 24.3889C20.4295 24.3889 20.4749 24.2754 20.543 24.1393C20.8153 23.5606 20.8493 23.0047 20.6451 22.3807C20.5203 21.9949 20.2593 21.5297 19.7374 20.7468C19.1134 19.8391 18.9659 19.6009 18.807 19.2718Z" fill="#FF007A"/>
<path d="M10.3542 22.7442C11.1938 22.0407 12.2263 21.5415 13.1794 21.3827C13.5878 21.3146 14.2686 21.3373 14.643 21.4394C15.2444 21.5982 15.789 21.9386 16.0726 22.3584C16.3449 22.7669 16.4697 23.1186 16.5945 23.9015C16.6399 24.2078 16.6967 24.5255 16.708 24.5936C16.7988 25.0021 16.9803 25.3197 17.2072 25.4899C17.559 25.7509 18.1716 25.7622 18.773 25.5353C18.8751 25.5013 18.9659 25.4672 18.9659 25.4786C18.9886 25.5013 18.6822 25.7055 18.478 25.8076C18.1943 25.9551 17.9674 26.0005 17.6611 26.0005C17.1165 26.0005 16.6513 25.7169 16.2769 25.1496C16.1974 25.0361 16.0386 24.7071 15.9024 24.4007C15.5053 23.4817 15.3011 23.2094 14.8359 22.903C14.4275 22.6421 13.9055 22.5853 13.5084 22.7782C12.9865 23.0278 12.8503 23.6973 13.2134 24.1057C13.3609 24.2759 13.6332 24.4121 13.8601 24.4461C14.28 24.5028 14.643 24.1738 14.643 23.754C14.643 23.4817 14.5409 23.3228 14.2686 23.198C13.9055 23.0392 13.5084 23.2207 13.5198 23.5725C13.5198 23.72 13.5878 23.8107 13.7353 23.8788C13.8261 23.9242 13.8261 23.9242 13.758 23.9128C13.429 23.8448 13.3496 23.4363 13.6105 23.1753C13.9282 22.8577 14.5976 22.9938 14.8246 23.4363C14.9153 23.6178 14.9267 23.9809 14.8473 24.2078C14.6544 24.7071 14.1098 24.968 13.5538 24.8205C13.1794 24.7184 13.0205 24.6163 12.5667 24.1511C11.7725 23.3342 11.4661 23.1753 10.3315 23.0052L10.1159 22.9711L10.3542 22.7442Z" fill="#FF007A"/>
<path fill-rule="evenodd" clip-rule="evenodd" d="M4.38627 4.48788C7.0299 7.69882 11.1031 12.6911 11.3074 12.9634C11.4776 13.1903 11.4095 13.4059 11.1258 13.5647C10.967 13.6555 10.638 13.7463 10.4791 13.7463C10.2976 13.7463 10.082 13.6555 9.93449 13.508C9.83238 13.4059 9.38988 12.7592 8.39143 11.2047C7.63124 10.0134 6.98452 9.02631 6.97317 9.01496C6.92779 8.99227 6.92779 8.99227 8.31201 11.4657C9.18565 13.0201 9.46931 13.5761 9.46931 13.6442C9.46931 13.7917 9.42392 13.8711 9.24238 14.0753C8.93604 14.4157 8.79989 14.8015 8.69777 15.607C8.58431 16.5034 8.27797 17.1387 7.40432 18.2166C6.89375 18.852 6.81433 18.9655 6.68952 19.2264C6.53068 19.5441 6.48529 19.7256 6.4626 20.1341C6.43991 20.5652 6.48529 20.8376 6.6101 21.246C6.72356 21.6091 6.84837 21.8474 7.15471 22.3125C7.41567 22.721 7.57451 23.0273 7.57451 23.1408C7.57451 23.2316 7.59721 23.2316 8.00566 23.1408C8.98143 22.9139 9.787 22.5281 10.2295 22.0516C10.5018 21.7566 10.5699 21.5977 10.5699 21.1893C10.5699 20.9283 10.5585 20.8716 10.4905 20.7127C10.377 20.4631 10.1614 20.2589 9.69623 19.9412C9.08354 19.5214 8.82258 19.181 8.7545 18.7272C8.69777 18.3414 8.76585 18.0805 9.10623 17.3657C9.45796 16.6282 9.54873 16.3218 9.60546 15.573C9.6395 15.0964 9.69623 14.9036 9.83238 14.7561C9.97988 14.5972 10.1047 14.5405 10.4564 14.4951C11.0351 14.4157 11.4095 14.2682 11.7045 13.9845C11.9654 13.7463 12.0789 13.508 12.0902 13.1563L12.1016 12.8953L11.9541 12.7365C11.4208 12.1238 4.03454 4 4.0005 4C3.98916 4 4.1707 4.21558 4.38627 4.48788ZM7.86951 20.622C7.99432 20.4064 7.92624 20.1341 7.72201 19.9979C7.52913 19.8731 7.23413 19.9299 7.23413 20.1001C7.23413 20.1454 7.25682 20.1908 7.3249 20.2135C7.42701 20.2703 7.43836 20.327 7.35894 20.4518C7.27952 20.5766 7.27952 20.6901 7.38163 20.7695C7.54048 20.8943 7.75605 20.8262 7.86951 20.622Z" fill="#FF007A"/>
<path fill-rule="evenodd" clip-rule="evenodd" d="M12.4646 14.6537C12.1923 14.7331 11.9313 15.0281 11.8519 15.3231C11.8065 15.5047 11.8292 15.8337 11.9086 15.9358C12.0334 16.0947 12.1469 16.14 12.4646 16.14C13.0886 16.14 13.6219 15.8677 13.6786 15.5387C13.7353 15.2664 13.4971 14.892 13.168 14.7218C12.9978 14.631 12.6461 14.597 12.4646 14.6537ZM13.1907 15.221C13.2815 15.0849 13.2474 14.9374 13.0773 14.8352C12.7709 14.6424 12.3057 14.8012 12.3057 15.0962C12.3057 15.2437 12.544 15.4026 12.7709 15.4026C12.9184 15.4026 13.1226 15.3118 13.1907 15.221Z" fill="#FF007A"/>
</svg>
