<svg width="58" height="54" viewBox="0 0 58 54" fill="none" xmlns="http://www.w3.org/2000/svg">
<path d="M56.6674 45.6833L33.5174 3.08335C33.0566 2.23435 32.3751 1.52547 31.545 1.0315C30.7148 0.537533 29.7667 0.276794 28.8007 0.276794C27.8347 0.276794 26.8866 0.537533 26.0565 1.0315C25.2263 1.52547 24.5449 2.23435 24.0841 3.08335L0.950721 45.6833C0.49326 46.5025 0.258526 47.4272 0.269928 48.3653C0.281329 49.3035 0.538467 50.2222 1.0157 51.03C1.49293 51.8377 2.17359 52.5063 2.98978 52.9689C3.80598 53.4315 4.7292 53.6721 5.66739 53.6667H51.9507C52.8794 53.6657 53.7919 53.4238 54.599 52.9646C55.4062 52.5054 56.0804 51.8446 56.5557 51.0469C57.031 50.2491 57.2911 49.3416 57.3107 48.4132C57.3303 47.4848 57.1086 46.5671 56.6674 45.75V45.6833ZM26.6674 13.6667C26.6674 13.0478 26.9132 12.4544 27.3508 12.0168C27.7884 11.5792 28.3819 11.3334 29.0007 11.3334C29.6196 11.3334 30.2131 11.5792 30.6506 12.0168C31.0882 12.4544 31.3341 13.0478 31.3341 13.6667V33.6667C31.3341 34.2855 31.0882 34.879 30.6506 35.3166C30.2131 35.7542 29.6196 36 29.0007 36C28.3819 36 27.7884 35.7542 27.3508 35.3166C26.9132 34.879 26.6674 34.2855 26.6674 33.6667V13.6667ZM29.0007 46.75C28.4074 46.75 27.8274 46.5741 27.334 46.2444C26.8407 45.9148 26.4561 45.4462 26.2291 44.8981C26.002 44.3499 25.9426 43.7467 26.0584 43.1647C26.1741 42.5828 26.4598 42.0483 26.8794 41.6287C27.299 41.2091 27.8335 40.9234 28.4155 40.8077C28.9974 40.6919 29.6006 40.7513 30.1488 40.9784C30.697 41.2054 31.1655 41.59 31.4951 42.0833C31.8248 42.5767 32.0007 43.1567 32.0007 43.75C32.0007 44.144 31.9231 44.5341 31.7724 44.8981C31.6216 45.262 31.4006 45.5928 31.122 45.8713C30.8435 46.1499 30.5127 46.3709 30.1488 46.5217C29.7848 46.6724 29.3947 46.75 29.0007 46.75Z" fill="#FEC007"/>
</svg>
