<svg width="20" height="22" viewBox="0 0 20 22" fill="none" xmlns="http://www.w3.org/2000/svg">
<path d="M13.6103 11.888L15.9117 12.3247C15.9355 13.4039 16.87 14.2603 17.9988 14.2375C19.1276 14.2147 20.0234 13.3213 19.9995 12.2422C19.9757 11.163 19.0412 10.3066 17.9124 10.3294C17.1197 10.3454 16.4081 10.7983 16.0867 11.4913L13.7256 11.0432C13.7232 10.2173 13.3869 9.42412 12.7871 8.82958L15.8431 4.70242C17.1321 5.28836 18.6738 4.76438 19.2867 3.5321C19.8996 2.29982 19.3515 0.825896 18.0625 0.239962C16.7736 -0.345973 15.2318 0.17801 14.6189 1.41029C14.1511 2.35098 14.3505 3.4711 15.1177 4.21075L12.0912 8.29799C10.6994 7.49884 8.90872 7.76742 7.83966 8.93557L3.86645 5.98566C4.38798 5.02594 3.997 3.84371 2.99312 3.34513C1.98925 2.84654 0.752617 3.22032 0.231089 4.18004C-0.290439 5.13975 0.10054 6.32198 1.10442 6.82057C1.80979 7.17092 2.6635 7.09951 3.29446 6.63737L7.3443 9.64414C6.67139 10.9584 7.01435 12.5416 8.17795 13.4922L5.71675 16.819C4.41376 16.063 2.71641 16.46 1.92567 17.7057C1.13493 18.9514 1.55019 20.5741 2.85324 21.33C4.15622 22.086 5.85358 21.689 6.64432 20.4433C7.25883 19.4752 7.15862 18.2401 6.39523 17.3742L8.92284 13.9568C9.78761 14.3499 10.7868 14.3714 11.6691 14.0157L14.6682 18.2512C13.7861 19.1427 13.8271 20.5491 14.7596 21.3923C15.6922 22.2356 17.1633 22.1964 18.0453 21.3049C18.9274 20.4133 18.8864 19.007 17.9538 18.1637C17.2662 17.5419 16.2528 17.3809 15.3918 17.7566L12.4359 13.5822C13.0083 13.1534 13.4204 12.5591 13.6103 11.888Z" fill="url(#paint0_linear_570_13744)"/>
<defs>
<linearGradient id="paint0_linear_570_13744" x1="20" y1="0" x2="-1.90045" y2="19.9095" gradientUnits="userSpaceOnUse">
<stop offset="0.0001" stop-color="#68DBF2"/>
<stop offset="1" stop-color="#509CF5"/>
</linearGradient>
</defs>
</svg>
