<svg width="23" height="20" viewBox="0 0 23 20" fill="none" xmlns="http://www.w3.org/2000/svg">
<path d="M15.4254 8.02761C15.9507 8.02761 16.3781 7.60019 16.3781 7.07482C16.3781 6.54944 15.9507 6.12207 15.4254 6.12207C14.9001 6.12207 14.4727 6.54944 14.4727 7.07482C14.4727 7.60019 14.9001 8.02761 15.4254 8.02761Z" fill="url(#paint0_linear_570_13777)"/>
<path d="M13.0369 13.0439L11.9424 14.8529L12.4431 15.6804H14.6322L13.0369 13.0439Z" fill="url(#paint1_linear_570_13777)"/>
<path d="M4.38196 15.68H10.9366L7.65927 10.2637L4.38196 15.68Z" fill="url(#paint2_linear_570_13777)"/>
<path d="M0.5 0V19.0629H22.5V0H0.5ZM20.406 16.9689H2.59404V2.09404H20.4059V16.9689H20.406Z" fill="url(#paint3_linear_570_13777)"/>
<path d="M7.65919 7.77323L11.1892 13.6071L13.0371 10.5531L16.139 15.6796H19.1169V3.38281H3.88306V14.0138L7.65919 7.77323ZM15.4255 4.83236C16.6616 4.83236 17.6673 5.838 17.6673 7.07417C17.6673 8.31034 16.6616 9.31602 15.4255 9.31602C14.1894 9.31602 13.1837 8.31034 13.1837 7.07417C13.1837 5.838 14.1894 4.83236 15.4255 4.83236Z" fill="url(#paint4_linear_570_13777)"/>
<defs>
<linearGradient id="paint0_linear_570_13777" x1="16.3781" y1="6.12207" x2="14.4726" y2="8.02756" gradientUnits="userSpaceOnUse">
<stop offset="0.0001" stop-color="#68DBF2"/>
<stop offset="1" stop-color="#509CF5"/>
</linearGradient>
<linearGradient id="paint1_linear_570_13777" x1="14.6322" y1="13.0439" x2="11.9963" y2="15.7332" gradientUnits="userSpaceOnUse">
<stop offset="0.0001" stop-color="#68DBF2"/>
<stop offset="1" stop-color="#509CF5"/>
</linearGradient>
<linearGradient id="paint2_linear_570_13777" x1="10.9366" y1="10.2637" x2="5.61741" y2="16.7009" gradientUnits="userSpaceOnUse">
<stop offset="0.0001" stop-color="#68DBF2"/>
<stop offset="1" stop-color="#509CF5"/>
</linearGradient>
<linearGradient id="paint3_linear_570_13777" x1="22.5" y1="0" x2="3.63115" y2="21.776" gradientUnits="userSpaceOnUse">
<stop offset="0.0001" stop-color="#68DBF2"/>
<stop offset="1" stop-color="#509CF5"/>
</linearGradient>
<linearGradient id="paint4_linear_570_13777" x1="19.1169" y1="3.38281" x2="7.09685" y2="18.2738" gradientUnits="userSpaceOnUse">
<stop offset="0.0001" stop-color="#68DBF2"/>
<stop offset="1" stop-color="#509CF5"/>
</linearGradient>
</defs>
</svg>
