<svg width="23" height="22" viewBox="0 0 23 22" fill="none" xmlns="http://www.w3.org/2000/svg">
<path d="M10.5833 12.6045C10.5833 12.2259 10.2735 11.917 9.89583 11.917H6.45833V14.667C6.45833 15.173 6.04767 15.5837 5.54167 15.5837C5.03567 15.5837 4.625 15.173 4.625 14.667V11.917H1.1875C0.808917 11.917 0.5 12.2259 0.5 12.6045V21.3128C0.5 21.6914 0.808917 22.0003 1.1875 22.0003H9.89583C10.2735 22.0003 10.5833 21.6914 10.5833 21.3128V12.6045Z" fill="url(#paint0_linear_570_13769)"/>
<path d="M22.5 12.6045C22.5 12.2259 22.1901 11.917 21.8125 11.917H18.375V14.667C18.375 15.173 17.9643 15.5837 17.4583 15.5837C16.9523 15.5837 16.5416 15.173 16.5416 14.667V11.917H13.1041C12.7255 11.917 12.4166 12.2259 12.4166 12.6045V21.3128C12.4166 21.6914 12.7255 22.0003 13.1041 22.0003H21.8125C22.1901 22.0003 22.5 21.6914 22.5 21.3128V12.6045Z" fill="url(#paint1_linear_570_13769)"/>
<path d="M16.5417 0.6875C16.5417 0.309833 16.2319 0 15.8542 0H12.4167V2.75C12.4167 3.256 12.006 3.66667 11.5 3.66667C10.994 3.66667 10.5834 3.256 10.5834 2.75V0H7.14587C6.76729 0 6.45837 0.309833 6.45837 0.6875V9.39583C6.45837 9.77442 6.76729 10.0833 7.14587 10.0833H15.8542C16.2319 10.0833 16.5417 9.77442 16.5417 9.39583V0.6875Z" fill="url(#paint2_linear_570_13769)"/>
<defs>
<linearGradient id="paint0_linear_570_13769" x1="10.5833" y1="11.917" x2="0.5" y2="22.0003" gradientUnits="userSpaceOnUse">
<stop offset="0.0001" stop-color="#68DBF2"/>
<stop offset="1" stop-color="#509CF5"/>
</linearGradient>
<linearGradient id="paint1_linear_570_13769" x1="22.5" y1="11.917" x2="12.4166" y2="22.0003" gradientUnits="userSpaceOnUse">
<stop offset="0.0001" stop-color="#68DBF2"/>
<stop offset="1" stop-color="#509CF5"/>
</linearGradient>
<linearGradient id="paint2_linear_570_13769" x1="16.5417" y1="0" x2="6.45837" y2="10.0833" gradientUnits="userSpaceOnUse">
<stop offset="0.0001" stop-color="#68DBF2"/>
<stop offset="1" stop-color="#509CF5"/>
</linearGradient>
</defs>
</svg>
