<svg width="18" height="18" viewBox="0 0 18 18" fill="none" xmlns="http://www.w3.org/2000/svg">
<path d="M3.9375 0C4.08668 0 4.22976 0.0592632 4.33525 0.164752C4.44074 0.270242 4.5 0.413316 4.5 0.5625V1.125H13.5V0.5625C13.5 0.413316 13.5593 0.270242 13.6648 0.164752C13.7702 0.0592632 13.9133 0 14.0625 0C14.2117 0 14.3548 0.0592632 14.4602 0.164752C14.5657 0.270242 14.625 0.413316 14.625 0.5625V1.125H15.75C16.3467 1.125 16.919 1.36205 17.341 1.78401C17.7629 2.20597 18 2.77826 18 3.375V15.75C18 16.3467 17.7629 16.919 17.341 17.341C16.919 17.7629 16.3467 18 15.75 18H2.25C1.65326 18 1.08097 17.7629 0.65901 17.341C0.237053 16.919 0 16.3467 0 15.75V3.375C0 2.77826 0.237053 2.20597 0.65901 1.78401C1.08097 1.36205 1.65326 1.125 2.25 1.125H3.375V0.5625C3.375 0.413316 3.43426 0.270242 3.53975 0.164752C3.64524 0.0592632 3.78832 0 3.9375 0V0ZM15.1358 3.375H2.86313C2.52563 3.375 2.25 3.627 2.25 3.9375V5.0625C2.25 5.373 2.5245 5.625 2.86313 5.625H15.1369C15.4744 5.625 15.75 5.373 15.75 5.0625V3.9375C15.75 3.627 15.4755 3.375 15.1358 3.375ZM10.503 14.3887C11.9183 14.3887 12.753 13.1884 12.753 11.1578C12.753 8.982 11.8744 8.15625 10.5559 8.15625C9.51413 8.15625 8.53425 8.91225 8.53425 10.1914C8.53425 11.4964 9.46125 12.1826 10.4198 12.1826C11.259 12.1826 11.8035 11.7596 11.9756 11.2939H12.006C12.0015 12.7744 11.4874 13.7284 10.5379 13.7284C9.79087 13.7284 9.40388 13.2221 9.35663 12.8059H8.58712C8.64 13.5259 9.25538 14.3876 10.503 14.3876V14.3887ZM7.25175 8.27438H6.53963C6.02924 8.54585 5.53595 8.84829 5.0625 9.18V9.96187C5.48438 9.67275 6.15262 9.26438 6.47775 9.08775H6.49125V14.274H7.25063V8.27325L7.25175 8.27438Z" fill="url(#paint0_linear_570_13750)"/>
<defs>
<linearGradient id="paint0_linear_570_13750" x1="18" y1="0" x2="0" y2="18" gradientUnits="userSpaceOnUse">
<stop offset="0.0001" stop-color="#68DBF2"/>
<stop offset="1" stop-color="#509CF5"/>
</linearGradient>
</defs>
</svg>
