<svg width="17" height="9" viewBox="0 0 17 9" fill="none" xmlns="http://www.w3.org/2000/svg">
<path d="M8.5 2.72305C8.50911 2.72305 8.51822 2.72305 8.52277 2.72305L11.6882 4.50439L8.52277 6.28574C8.51366 6.28574 8.50911 6.28574 8.5 6.28574C8.49089 6.28574 8.48178 6.28574 8.47723 6.28574L5.31184 4.50439L8.47723 2.72305C8.48178 2.72305 8.49089 2.72305 8.5 2.72305ZM8.5 0C8.02633 0 7.55266 0.102141 7.1883 0.302042L1.03971 3.76257C0.320097 4.16682 0.320097 4.83318 1.03971 5.23743L7.1883 8.69785C7.54811 8.90219 8.02178 9 8.5 9C8.97822 9 9.44734 8.89775 9.8117 8.69785L15.9603 5.23743C16.6799 4.83318 16.6799 4.16682 15.9603 3.76257L9.8117 0.302042C9.44734 0.102141 8.97367 0 8.5 0Z" fill="url(#paint0_linear_570_13813)"/>
<defs>
<linearGradient id="paint0_linear_570_13813" x1="0.5" y1="0" x2="8.19139" y2="13.6736" gradientUnits="userSpaceOnUse">
<stop stop-color="#FFEF5E"/>
<stop offset="1" stop-color="#F7936F"/>
</linearGradient>
</defs>
</svg>
